<svg width="960" height="640" viewBox="0 0 960 640" fill="none" xmlns="http://www.w3.org/2000/svg">
<path d="M47 440L124 360L136 367L149 360C153.333 357.333 159.4 350.2 149 343L224 262L291 214L329 183L367.5 165L433 123V117L497 66L595 165L598.5 161L642 176L705 143L744 138L770 183L794 201L852 316L913 488L883 509L861 478L760 497L647 431L633 437.896L513 497L400 574L110 463.915L47 440Z" fill="#0B9E43" fill-opacity="0.15"/>
<path d="M291 214L224 262L149 343C159.4 350.2 153.333 357.333 149 360L136 367L124 360L47 440L110 463.915M291 214L412 343M291 214L329 183L367.5 165L433 123V117L497 66L595 165M595 165L598.5 161L642 176L705 143L744 138L770 183L794 201M595 165L526 232.115M794 201L852 316L913 488L883 509L861 478L760 497L647 431L633 437.896M794 201L736 235V297L705 307L622 360L589.058 367M633 437.896L513 497L400 574L110 463.915M633 437.896L589.058 367M581 354L589.058 367M581 354L583.5 348.5L589.058 351.5L592 348.5L583.5 339L592 333.5L589.058 328.5L595 324.5L607 336L630.5 319.5L624.5 316V310L627 304.5L633 301H637H647L653 304.5L656 301L653 287.5L642 297L633 294.5L630.5 287.5L633 278.5L627 275.5V283.5L622 275.5L615.5 278.5L611 262L559 251L554 262H544M581 354L575 357.5L567 360L554 343V339L548.5 328.5H544V324.5L554 313L548.5 307H539.5L526 291V283.5L520 281V275.5L529 271V275.5L539.5 271L537.5 263.5L544 262M412 343L110 463.915M412 343L526 232.115M526 232.115L544 262" stroke="#0B9E43" stroke-width="3" stroke-linecap="round" stroke-linejoin="round"/>
<path d="M397.931 209H402.899V200H407.507C413.735 200 416.615 196.076 416.615 191.756C416.615 187.364 413.771 183.44 407.471 183.44H397.931V209ZM402.899 187.976H406.967C409.307 187.976 411.575 189.02 411.575 191.684C411.575 194.348 409.415 195.32 407.003 195.32H402.899V187.976ZM424.878 209.288C428.118 209.288 429.81 207.488 430.314 206.768L430.674 209H434.634V197.552C434.634 192.008 431.61 189.488 426.39 189.488C423.186 189.488 420.45 191.036 419.154 192.944L422.358 195.356C423.186 194.492 424.518 193.556 426.282 193.556C428.514 193.556 429.81 194.348 429.81 197.012V197.876C429.198 197.66 427.542 197.3 426.174 197.3C420.954 197.3 418.506 200.18 418.506 203.456C418.506 206.732 421.098 209.288 424.878 209.288ZM425.958 205.292C424.41 205.292 423.222 204.608 423.222 203.06C423.222 201.62 424.194 200.648 426.57 200.612C427.578 200.612 429.198 200.756 429.774 200.972V202.664C429.486 203.924 427.758 205.292 425.958 205.292ZM440.077 203.456C440.077 207.272 442.561 209.108 446.233 209.108C447.277 209.108 448.753 209 449.185 208.928V204.932H447.817C446.053 204.932 445.153 204.356 445.153 202.016V193.844H449.293V189.848H445.153V184.628H441.085L440.041 189.848H437.053V193.844H440.077V203.456ZM454.456 203.456C454.456 207.272 456.94 209.108 460.612 209.108C461.656 209.108 463.132 209 463.564 208.928V204.932H462.196C460.432 204.932 459.532 204.356 459.532 202.016V193.844H463.672V189.848H459.532V184.628H455.464L454.42 189.848H451.432V193.844H454.456V203.456ZM475.604 209.36C480.32 209.36 484.856 206.3 484.856 199.424C484.856 192.404 480.428 189.488 475.604 189.488C470.96 189.488 466.388 192.332 466.388 199.424C466.388 206.3 470.924 209.36 475.604 209.36ZM475.604 205.148C473.12 205.148 471.284 203.456 471.284 199.424C471.284 195.32 473.048 193.736 475.604 193.736C478.088 193.736 479.924 195.356 479.924 199.424C479.924 203.528 478.016 205.148 475.604 205.148ZM488.734 209H493.774V197.552C493.774 195.068 495.286 193.592 497.266 193.592C499.354 193.592 500.65 194.996 500.65 197.552V209H505.726V197.3C505.726 191.684 502.522 189.344 498.706 189.344C496.402 189.344 493.954 190.568 493.198 191.936L492.586 189.848H488.734V209Z" fill="#E94256"/>
<path d="M190.705 352H195.709V341.488H205.933V352H210.937V326.44H205.933V336.808H195.709V326.44H190.705V352ZM221.484 352.288C224.724 352.288 226.416 350.488 226.92 349.768L227.28 352H231.24V340.552C231.24 335.008 228.216 332.488 222.996 332.488C219.792 332.488 217.056 334.036 215.76 335.944L218.964 338.356C219.792 337.492 221.124 336.556 222.888 336.556C225.12 336.556 226.416 337.348 226.416 340.012V340.876C225.804 340.66 224.148 340.3 222.78 340.3C217.56 340.3 215.112 343.18 215.112 346.456C215.112 349.732 217.704 352.288 221.484 352.288ZM222.564 348.292C221.016 348.292 219.828 347.608 219.828 346.06C219.828 344.62 220.8 343.648 223.176 343.612C224.184 343.612 225.804 343.756 226.38 343.972V345.664C226.092 346.924 224.364 348.292 222.564 348.292ZM235.488 352H240.528V325.72H235.488V352ZM246.591 352H251.847V336.772H255.375V332.848H251.631V332.2C251.487 329.824 252.567 329.32 255.411 329.5V325.72C255.303 325.72 253.935 325.648 253.395 325.648C248.715 325.648 246.591 327.916 246.591 332.272V332.848H244.071V336.772H246.591V352ZM259.148 352H264.152V340.624C264.152 338.176 265.484 336.772 267.5 336.772C269.372 336.772 270.524 338.068 270.452 340.624V352H275.492V340.48C275.492 338.104 276.932 336.772 278.804 336.772C280.676 336.772 281.792 337.96 281.792 340.48V352H286.796V340.408C286.796 335.476 284.06 332.308 280.1 332.308C277.148 332.308 275.024 333.784 274.088 335.332C273.332 333.46 271.316 332.308 268.976 332.308C266.6 332.308 264.476 333.964 263.9 335.116L263.288 332.848H259.148V352ZM299.456 352.36C304.172 352.36 308.708 349.3 308.708 342.424C308.708 335.404 304.28 332.488 299.456 332.488C294.812 332.488 290.24 335.332 290.24 342.424C290.24 349.3 294.776 352.36 299.456 352.36ZM299.456 348.148C296.972 348.148 295.136 346.456 295.136 342.424C295.136 338.32 296.9 336.736 299.456 336.736C301.94 336.736 303.776 338.356 303.776 342.424C303.776 346.528 301.868 348.148 299.456 348.148ZM320.866 352.36C325.582 352.36 330.118 349.3 330.118 342.424C330.118 335.404 325.69 332.488 320.866 332.488C316.222 332.488 311.65 335.332 311.65 342.424C311.65 349.3 316.186 352.36 320.866 352.36ZM320.866 348.148C318.382 348.148 316.546 346.456 316.546 342.424C316.546 338.32 318.31 336.736 320.866 336.736C323.35 336.736 325.186 338.356 325.186 342.424C325.186 346.528 323.278 348.148 320.866 348.148ZM333.996 352H339.036V340.552C339.036 338.068 340.548 336.592 342.528 336.592C344.616 336.592 345.912 337.996 345.912 340.552V352H350.988V340.3C350.988 334.684 347.784 332.344 343.968 332.344C341.664 332.344 339.216 333.568 338.46 334.936L337.848 332.848H333.996V352Z" fill="#E94256"/>
<path d="M351.674 432H356.678V421.632H366.11V417.204H356.678V411.156H369.026V406.476H351.674V432ZM379.431 432.36C383.031 432.36 385.623 431.316 387.243 429.66L384.867 426.42C383.787 427.5 381.843 428.328 379.683 428.328C377.199 428.328 375.039 426.924 374.895 423.936H387.783V421.884C387.783 415.476 383.751 412.488 378.999 412.488C374.319 412.488 370.107 415.944 370.107 422.532C370.107 429.3 374.535 432.36 379.431 432.36ZM374.895 420.624C375.075 417.96 376.767 416.376 378.963 416.376C381.267 416.376 382.995 417.852 382.995 420.624H374.895ZM391.748 432H396.86V421.74C396.86 418.356 398.408 417.132 401.18 417.132C401.792 417.132 402.44 417.204 403.196 417.276V412.632C402.62 412.596 401.828 412.488 401.036 412.488C399.092 412.488 396.788 413.604 396.068 415.008L395.456 412.848H391.748V432ZM413.511 440.568C419.631 440.568 423.195 436.968 423.195 430.488V412.848H418.767L418.335 414.936C417.615 413.568 415.599 412.56 413.403 412.56C409.515 412.56 405.195 415.548 405.195 422.424C405.195 429.3 409.479 432.396 413.403 432.396C415.491 432.396 417.363 431.352 417.939 430.02V431.424C417.939 434.484 416.391 436.104 413.403 436.104C411.531 436.104 409.623 435.204 408.651 434.268L405.807 437.472C407.319 439.236 410.271 440.568 413.511 440.568ZM414.303 428.076C412.107 428.076 410.091 426.312 410.091 422.532C410.091 418.536 412.143 416.844 414.303 416.844C416.463 416.844 418.479 418.392 418.479 422.532C418.479 426.132 416.499 428.076 414.303 428.076ZM434.981 432.468C436.997 432.468 439.373 431.316 440.129 429.732L440.705 432H444.809V412.848H439.517V424.116C439.517 426.816 438.113 428.22 436.205 428.22C434.297 428.22 432.893 426.924 432.893 424.116V412.848H427.493V424.116C427.493 430.2 431.345 432.468 434.981 432.468ZM456.096 432.504C460.632 432.504 463.872 430.524 463.872 426.168C463.872 422.244 461.532 420.516 456.24 420.048C454.116 419.832 453.252 419.436 453.252 418.14C453.252 416.88 454.224 416.34 456.132 416.34C458.076 416.34 459.156 417.06 459.948 418.212L463.404 415.872C462.36 414.036 460.128 412.416 456.132 412.416C451.884 412.416 449.04 414.792 449.04 418.212C449.04 421.704 451.416 423.756 456.024 424.296C458.544 424.584 459.372 424.98 459.372 426.276C459.372 427.68 458.328 428.256 456.204 428.256C454.548 428.256 453.072 427.572 451.704 426.024L448.212 428.832C449.796 430.992 452.856 432.504 456.096 432.504ZM475.825 432.36C480.541 432.36 485.077 429.3 485.077 422.424C485.077 415.404 480.649 412.488 475.825 412.488C471.181 412.488 466.609 415.332 466.609 422.424C466.609 429.3 471.145 432.36 475.825 432.36ZM475.825 428.148C473.341 428.148 471.505 426.456 471.505 422.424C471.505 418.32 473.269 416.736 475.825 416.736C478.309 416.736 480.145 418.356 480.145 422.424C480.145 426.528 478.237 428.148 475.825 428.148ZM488.955 432H493.995V420.552C493.995 418.068 495.507 416.592 497.487 416.592C499.575 416.592 500.871 417.996 500.871 420.552V432H505.947V420.3C505.947 414.684 502.743 412.344 498.927 412.344C496.623 412.344 494.175 413.568 493.419 414.936L492.807 412.848H488.955V432Z" fill="#E94256"/>
<path d="M730.941 432H735.945V421.488H746.169V432H751.173V406.44H746.169V416.808H735.945V406.44H730.941V432ZM761.72 432.288C764.96 432.288 766.652 430.488 767.156 429.768L767.516 432H771.476V420.552C771.476 415.008 768.452 412.488 763.232 412.488C760.028 412.488 757.292 414.036 755.996 415.944L759.2 418.356C760.028 417.492 761.36 416.556 763.124 416.556C765.356 416.556 766.652 417.348 766.652 420.012V420.876C766.04 420.66 764.384 420.3 763.016 420.3C757.796 420.3 755.348 423.18 755.348 426.456C755.348 429.732 757.94 432.288 761.72 432.288ZM762.8 428.292C761.252 428.292 760.064 427.608 760.064 426.06C760.064 424.62 761.036 423.648 763.412 423.612C764.42 423.612 766.04 423.756 766.616 423.972V425.664C766.328 426.924 764.6 428.292 762.8 428.292ZM775.725 432H780.837V421.74C780.837 418.356 782.385 417.132 785.157 417.132C785.769 417.132 786.417 417.204 787.173 417.276V412.632C786.597 412.596 785.805 412.488 785.013 412.488C783.069 412.488 780.765 413.604 780.045 415.008L779.433 412.848H775.725V432ZM790.49 432H795.602V421.74C795.602 418.356 797.15 417.132 799.922 417.132C800.534 417.132 801.182 417.204 801.938 417.276V412.632C801.362 412.596 800.57 412.488 799.778 412.488C797.834 412.488 795.53 413.604 794.81 415.008L794.198 412.848H790.49V432ZM807.704 409.716C809.324 409.716 810.62 408.852 810.62 407.16C810.62 405.504 809.324 404.676 807.704 404.676C806.12 404.676 804.86 405.504 804.86 407.16C804.86 408.852 806.12 409.716 807.704 409.716ZM805.436 432H810.26V412.848H805.436V432ZM821.616 432.504C826.152 432.504 829.392 430.524 829.392 426.168C829.392 422.244 827.052 420.516 821.76 420.048C819.636 419.832 818.772 419.436 818.772 418.14C818.772 416.88 819.744 416.34 821.652 416.34C823.596 416.34 824.676 417.06 825.468 418.212L828.924 415.872C827.88 414.036 825.648 412.416 821.652 412.416C817.404 412.416 814.56 414.792 814.56 418.212C814.56 421.704 816.936 423.756 821.544 424.296C824.064 424.584 824.892 424.98 824.892 426.276C824.892 427.68 823.848 428.256 821.724 428.256C820.068 428.256 818.592 427.572 817.224 426.024L813.732 428.832C815.316 430.992 818.376 432.504 821.616 432.504Z" fill="#E94256"/>
<path d="M593.026 228.396C599.038 228.396 602.89 225.552 603.61 219.108H598.498C598.03 221.88 596.914 224.004 593.17 224.004C589.318 224.004 586.798 221.592 586.798 215.328C586.798 208.632 589.282 206.472 593.098 206.472C596.41 206.472 597.958 208.38 598.462 211.224H603.538C602.818 205.536 599.29 202.008 593.026 202.008C586.33 202.008 581.758 206.148 581.758 215.328C581.758 224.616 586.87 228.396 593.026 228.396ZM615.93 228.36C620.646 228.36 625.182 225.3 625.182 218.424C625.182 211.404 620.754 208.488 615.93 208.488C611.286 208.488 606.714 211.332 606.714 218.424C606.714 225.3 611.25 228.36 615.93 228.36ZM615.93 224.148C613.446 224.148 611.61 222.456 611.61 218.424C611.61 214.32 613.374 212.736 615.93 212.736C618.414 212.736 620.25 214.356 620.25 218.424C620.25 222.528 618.342 224.148 615.93 224.148ZM629.06 228H634.1V201.72H629.06V228ZM638.939 228H643.979V201.72H638.939V228ZM657.278 228.36C660.878 228.36 663.47 227.316 665.09 225.66L662.714 222.42C661.634 223.5 659.69 224.328 657.53 224.328C655.046 224.328 652.886 222.924 652.742 219.936H665.63V217.884C665.63 211.476 661.598 208.488 656.846 208.488C652.166 208.488 647.954 211.944 647.954 218.532C647.954 225.3 652.382 228.36 657.278 228.36ZM652.742 216.624C652.922 213.96 654.614 212.376 656.81 212.376C659.114 212.376 660.842 213.852 660.842 216.624H652.742ZM677.156 236.568C683.276 236.568 686.84 232.968 686.84 226.488V208.848H682.412L681.98 210.936C681.26 209.568 679.244 208.56 677.048 208.56C673.16 208.56 668.84 211.548 668.84 218.424C668.84 225.3 673.124 228.396 677.048 228.396C679.136 228.396 681.008 227.352 681.584 226.02V227.424C681.584 230.484 680.036 232.104 677.048 232.104C675.176 232.104 673.268 231.204 672.296 230.268L669.452 233.472C670.964 235.236 673.916 236.568 677.156 236.568ZM677.948 224.076C675.752 224.076 673.736 222.312 673.736 218.532C673.736 214.536 675.788 212.844 677.948 212.844C680.108 212.844 682.124 214.392 682.124 218.532C682.124 222.132 680.144 224.076 677.948 224.076ZM699.993 228.36C703.593 228.36 706.185 227.316 707.805 225.66L705.429 222.42C704.349 223.5 702.405 224.328 700.245 224.328C697.761 224.328 695.601 222.924 695.457 219.936H708.345V217.884C708.345 211.476 704.313 208.488 699.561 208.488C694.881 208.488 690.669 211.944 690.669 218.532C690.669 225.3 695.097 228.36 699.993 228.36ZM695.457 216.624C695.637 213.96 697.329 212.376 699.525 212.376C701.829 212.376 703.557 213.852 703.557 216.624H695.457Z" fill="#E94256"/>
<path d="M543.529 301H548.889C552.609 301 554.129 298.92 554.129 296.84C554.129 295.28 553.129 293.86 551.749 293.46C552.529 293.18 553.269 292.14 553.269 290.82C553.269 288.66 551.629 286.8 548.289 286.8H543.529V301ZM546.329 292.74V289.18H548.329C549.769 289.18 550.449 290 550.449 290.96C550.449 292 549.729 292.74 548.389 292.74H546.329ZM546.329 298.62V294.8H548.749C550.309 294.8 551.229 295.46 551.229 296.68C551.229 297.92 550.509 298.62 548.749 298.62H546.329ZM560.764 301.2C563.384 301.2 565.904 299.5 565.904 295.68C565.904 291.78 563.444 290.16 560.764 290.16C558.184 290.16 555.644 291.74 555.644 295.68C555.644 299.5 558.164 301.2 560.764 301.2ZM560.764 298.86C559.384 298.86 558.364 297.92 558.364 295.68C558.364 293.4 559.344 292.52 560.764 292.52C562.144 292.52 563.164 293.42 563.164 295.68C563.164 297.96 562.104 298.86 560.764 298.86ZM568.059 301H570.899V295.3C570.899 293.42 571.759 292.74 573.299 292.74C573.639 292.74 573.999 292.78 574.419 292.82V290.24C574.099 290.22 573.659 290.16 573.219 290.16C572.139 290.16 570.859 290.78 570.459 291.56L570.119 290.36H568.059V301ZM580.549 301.2C583.169 301.2 585.689 299.5 585.689 295.68C585.689 291.78 583.229 290.16 580.549 290.16C577.969 290.16 575.429 291.74 575.429 295.68C575.429 299.5 577.949 301.2 580.549 301.2ZM580.549 298.86C579.169 298.86 578.149 297.92 578.149 295.68C578.149 293.4 579.129 292.52 580.549 292.52C581.929 292.52 582.949 293.42 582.949 295.68C582.949 297.96 581.889 298.86 580.549 298.86ZM591.784 301.26C592.904 301.26 594.224 300.62 594.644 299.74L594.964 301H597.244V290.36H594.304V296.62C594.304 298.12 593.524 298.9 592.464 298.9C591.404 298.9 590.624 298.18 590.624 296.62V290.36H587.624V296.62C587.624 300 589.764 301.26 591.784 301.26ZM604.095 305.76C607.495 305.76 609.475 303.76 609.475 300.16V290.36H607.015L606.775 291.52C606.375 290.76 605.255 290.2 604.035 290.2C601.875 290.2 599.475 291.86 599.475 295.68C599.475 299.5 601.855 301.22 604.035 301.22C605.195 301.22 606.235 300.64 606.555 299.9V300.68C606.555 302.38 605.695 303.28 604.035 303.28C602.995 303.28 601.935 302.78 601.395 302.26L599.815 304.04C600.655 305.02 602.295 305.76 604.095 305.76ZM604.535 298.82C603.315 298.82 602.195 297.84 602.195 295.74C602.195 293.52 603.335 292.58 604.535 292.58C605.735 292.58 606.855 293.44 606.855 295.74C606.855 297.74 605.755 298.82 604.535 298.82ZM612.122 301H615.022V295.06C615.022 293.68 615.942 292.8 616.962 292.8C618.042 292.8 618.822 293.48 618.822 295.06V301H621.782V295.04C621.782 291.7 619.942 290.16 617.642 290.16C616.622 290.16 615.362 290.82 615.022 291.52V286.4H612.122V301Z" fill="#E94256"/>
<path d="M151.5 159L126 172L90.5 157L82 159H59.5H47V154.5L53.5 140.5H59.5L63 131H68L75.5 117V113H79.5L86.5 108V101.5H92L94.5 105.5L102.5 101.5L100 99L102.5 95L107 91.5L102.5 84.5L107 81L102.5 77L97 60H102.5L107 55.5L111 52.5L117 55.5L122.5 47V39L126 34.5L128.5 39V34.5H134L139 28V47H158.5V55.5L167.5 65H180L200.5 77L198 81L211 101.5L242.5 95L280 81L267.5 95L257.5 113L239 131L191 154.5L174 165L170.5 162.5L161.5 165L151.5 159Z" fill="#8492A6" fill-opacity="0.15" stroke="#8492A6" stroke-width="3" stroke-linecap="round" stroke-linejoin="round"/>
<path d="M95.5 158.5L117.5 138L136.5 124L145.5 133.5H151L159.5 130.5L164 137L177 163L174.5 165L170.5 163L162 165L151 159.5L126.5 172L102 161.331L95.5 158.5Z" fill="#0B9E43" fill-opacity="0.15"/>
<path d="M117.5 138L95.5 158.5L102 161.331M117.5 138L136.5 124L145.5 133.5M117.5 138L128.5 149.5M145.5 133.5H151L159.5 130.5L164 137M145.5 133.5L139.656 139M164 137L177 163L174.5 165L170.5 163L162 165L151 159.5L126.5 172L102 161.331M164 137L159.5 139V146L145.5 151.5M102 161.331L128.5 149.5M128.5 149.5L139.656 139M139.656 139L142 142M142 142L138.5 144L142 151.5H145.5M142 142H147.5L148.5 146H151L148.5 149.5L145.5 151.5M145.5 151.5L148.5 159.5" stroke="#0B9E43" stroke-linecap="round" stroke-linejoin="round"/>
<path d="M120.942 100.22C124.282 100.22 126.422 98.64 126.822 95.06H123.982C123.722 96.6 123.102 97.78 121.022 97.78C118.882 97.78 117.482 96.44 117.482 92.96C117.482 89.24 118.862 88.04 120.982 88.04C122.822 88.04 123.682 89.1 123.962 90.68H126.782C126.382 87.52 124.422 85.56 120.942 85.56C117.222 85.56 114.682 87.86 114.682 92.96C114.682 98.12 117.522 100.22 120.942 100.22ZM129.187 100H138.827V97.48H131.967V94.06H137.207V91.62H131.967V88.32H138.747V85.8H129.187V100ZM141.394 100H144.154V90.58L150.534 100H153.154V85.8H150.354V94.94L144.074 85.8H141.394V100ZM159.302 100H162.082V88.26H166.102V85.82H155.302V88.26H159.302V100ZM168.269 100H171.029V94.86H173.709L176.029 100H179.109L176.289 94.2C177.869 93.56 178.849 92.14 178.849 90.38C178.849 87.84 177.049 85.8 173.349 85.8H168.269V100ZM171.029 92.36V88.32H173.329C174.669 88.32 175.869 88.86 175.869 90.3C175.869 91.76 174.709 92.36 173.329 92.36H171.029ZM181.491 100H191.131V97.48H184.271V94.06H189.511V91.62H184.271V88.32H191.051V85.8H181.491V100ZM119.291 120.22C122.631 120.22 124.771 118.64 125.171 115.06H122.331C122.071 116.6 121.451 117.78 119.371 117.78C117.231 117.78 115.831 116.44 115.831 112.96C115.831 109.24 117.211 108.04 119.331 108.04C121.171 108.04 122.031 109.1 122.311 110.68H125.131C124.731 107.52 122.771 105.56 119.291 105.56C115.571 105.56 113.031 107.86 113.031 112.96C113.031 118.12 115.871 120.22 119.291 120.22ZM133.216 120.2C137.076 120.2 139.456 117.74 139.456 112.84C139.456 108.04 137.076 105.58 133.216 105.58C129.336 105.58 126.996 108 126.996 112.84C126.996 117.8 129.376 120.2 133.216 120.2ZM133.216 117.78C130.996 117.78 129.776 116.36 129.776 112.84C129.776 109.4 131.056 108.02 133.216 108.02C135.356 108.02 136.676 109.4 136.676 112.84C136.676 116.32 135.396 117.78 133.216 117.78ZM147.153 120.2C150.293 120.2 152.813 118.22 152.813 114.12V105.8H150.033V114.1C150.033 116.52 148.753 117.66 147.153 117.66C145.533 117.66 144.233 116.56 144.233 114.1V105.8H141.453V114.12C141.453 118.22 143.973 120.2 147.153 120.2ZM155.349 120H158.109V110.58L164.489 120H167.109V105.8H164.309V114.94L158.029 105.8H155.349V120ZM173.257 120H176.037V108.26H180.057V105.82H169.257V108.26H173.257V120ZM185.884 120H188.664V114.64L193.484 105.8H190.284L187.324 111.72L184.324 105.8H181.184L185.884 114.64V120Z" fill="#8492A6"/>
<path d="M161.5 130.5L497 66.5" stroke="#8492A6" stroke-opacity="0.5" stroke-width="2" stroke-linecap="round" stroke-linejoin="round" stroke-dasharray="6 12"/>
<path d="M96 158L46 440" stroke="#8492A6" stroke-opacity="0.5" stroke-width="2" stroke-linecap="round" stroke-linejoin="round" stroke-dasharray="6 12"/>
</svg>
