<svg version="1" xmlns="http://www.w3.org/2000/svg" width="933.333" height="933.333" viewBox="0 0 700.000000 700.000000"><path d="M327.8.4c-.1.2-4.1.6-8.8 1-8.7.7-10.5.9-22.5 2.7-11.6 1.8-12.3 1.9-19.2 3.5-15.4 3.4-20.3 4.7-31.3 8.1-26 7.9-58.1 22.7-81.5 37.4-62.9 39.5-112.2 98.5-139.5 167-6.6 16.5-14.2 40.8-16.5 53-.3 1.3-1.1 5.8-2 9.9-2.9 14.7-3.6 20-5.2 37-1.5 16.4-.8 59.2 1.2 71.1.2 1.3.6 4.6.9 7.4 2.1 18.2 10.9 54.7 16.5 68 .5 1.1 2.5 6.5 4.6 12 5.2 13.6 16 35.7 23.9 48.9 3.6 6 6.6 11.1 6.6 11.3 0 .2.4.9 1 1.6.5.7 4.6 6.4 9.1 12.6 7.3 10.4 18.2 24.2 23.4 29.7 25.8 27.3 42.7 42 66.5 57.9 42.9 28.5 87.3 46.2 138.4 54.9 3.7.7 10.2 1.6 14.4 2.1l3.2.4v-61.4c0-69.1.7-63.5-8-67-2.5-1-6.4-2.7-8.7-3.7-4.6-2-9.5-4-10.3-4.3-.3-.1-1.6-.6-3-1.2s-11.9-5-23.5-9.8c-11.5-4.8-22.3-9.2-24-9.9-1.6-.7-5.2-2.3-8-3.4-17.1-7.3-62.4-26-64.1-26.6-1.2-.3-2.9-1.5-3.9-2.6-1.6-1.8-1.8-5.3-1.9-40.4-.1-30.1-.4-38.8-1.4-39.8-1-1-9.3-1.4-36.9-1.5-31.4-.2-35.8-.5-37.4-1.9-1.7-1.6-1.8-4.8-1.9-54 0-51.2 0-52.4 2-54.4 1.8-1.8 3.3-2 17.3-2 12.2 0 15.7.3 17.5 1.6 2.2 1.5 2.2 1.5 2.2 34.9 0 29 .2 33.6 1.6 34.9 1.8 1.9 1 1.8 19.1 1.8 9.7.1 14.7-.3 15.7-1.1 2-1.7 2.4-4.4 3.1-20.5.4-7.6.8-14.6 1-15.5.1-.9.6-4.3 1-7.6 4-35.4 15.9-70.6 32.4-95.4l3.6-5.4.1-22.1c.1-28.4 1.4-26.6-19.3-26.5-8.1 0-15.6-.3-16.5-.6-2.7-1-3.1-3.9-3.1-19.8 0-12.6.3-15.1 1.7-16.5 1.5-1.5 5.3-1.7 37.1-1.7 32.1 0 35.6.2 37.1 1.7s1.8 4.1 1.8 19.6c.1 24.3.9 25 16.9 15.9 21-12.1 44.1-20.7 73.2-27.3 6-1.4 22.2-4.3 28-4.9 2.8-.4 6.1-.8 7.5-1.1 1.4-.2 5.9-.7 10-1 4.1-.4 8.2-.8 9-1 .8-.1 2.7-.3 4.1-.3 1.4-.1 3.4-.7 4.5-1.5 1.7-1.3 1.9-2.9 2.1-16.3.1-8.1.2-15.8.2-17.1.1-1.2.9-3 1.9-4 1.5-1.5 3.7-1.7 17.5-1.6 13.5 0 16 .3 17.5 1.7 1.5 1.6 1.7 5 1.7 37.2 0 30.5-.2 35.7-1.6 37-1.1 1.1-4.7 1.6-14.9 2-13.9.5-24.3 1.1-34 2.1-12.1 1.3-20.9 2.4-23 2.9-.8.2-3.7.7-6.5 1.1-3.9.5-24.1 5.2-33.5 7.8-9.2 2.6-26.4 9.6-35.6 14.6-44.5 24-70.3 61.4-79.8 116-1.4 7.7-2.1 13.6-3.1 25.5-.4 4.3-.8 16.9-.6 19.7.2 3.9 2.7 4.1 57.1 4.2 28.9.1 53.6-.2 55-.7 1.3-.4 2.8-1.4 3.2-2 .4-.7.8-24.7.8-53.5 0-51 0-52.2 2-54.2 1.9-1.9 3.3-2 17.4-1.9 13.7 0 15.6.2 17.4 2 2.1 1.8 2.1 2.8 2.2 37.1 0 34.7 0 35.3 2.1 37 1.9 1.6 5.2 1.8 36.4 1.8 32.2 0 34.4-.1 36.6-1.9l2.4-1.9v-37.6c0-29.1.3-37.8 1.3-38.8s9.9-1.4 37.1-1.8c27.6-.4 36.2-.8 37.4-1.8 1.3-1.1 1.6-4.3 1.9-17.8.3-15.2.5-16.7 2.3-18 1.6-1.2 5.1-1.5 17.8-1.2 14.4.3 16 .5 17.3 2.2 2.1 2.9 2.1 70.3 0 73.2-1.4 1.8-3 1.9-37.1 2-32 .1-35.8.3-37.3 1.8-1.5 1.4-1.7 4-1.7 17.7-.1 14.5.1 16.1 1.8 17.7 1.8 1.6 7.3 1.7 75.8 1.7 69 .1 74 .2 75.6 1.8 2.6 2.5 2.8 31.9.3 35-1.6 1.9-2.9 2-37.4 2.1-34.2.1-35.8.2-37.2 2-1.1 1.5-1.4 5.9-1.4 19.2 0 9.5.3 18 .6 18.8 1.2 3.2 3.9 3.6 13.5 2 20.7-3.3 28.3-3.7 31.1-1.5 1.9 1.6 2.1 2.8 2.2 17.5.2 19.2.2 19.1-11.9 20-4.4.4-9.1.9-10.5 1.1-1.4.3-4.1.7-6 .9-30.6 4-70.9 21.4-97 42-9.8 7.7-11.8 9.4-20.1 17.8-27.5 27.6-46.8 63.9-55.5 104.3-1.4 6.4-1.8 24.8-1.5 61.2l.1 5.1 3.8-.4c5-.6 10.2-1.3 13.2-1.9 1.4-.2 3.6-.6 5-.9 8.1-1.3 11.7-2.1 22.5-4.8 30.8-7.6 67.3-22.1 89.7-35.7 3.7-2.3 7-4.1 7.3-4.1.3 0 1.1-.5 1.8-1 .7-.6 6.4-4.5 12.7-8.7 11.5-7.6 28-20.1 35.5-26.9 8.3-7.6 23.1-22.1 27.5-27 8.7-9.8 11.7-13.2 15.1-17.5 1.8-2.4 3.7-4.9 4.2-5.4 8.2-10.2 21.7-30.9 29.6-45.4 5.4-9.9 14.1-27.6 14.1-28.7 0-.2 1.1-2.7 2.4-5.6 5.7-12.7 15.1-42.1 18.2-57.3 1.6-7.7 5.4-30.1 6-35 .4-3.3.9-7.6 1.1-9.5.8-6.9 1-51.7.3-59.5-1.2-12.6-2-20.2-2.5-22.7-.3-1.3-.8-4.3-1.1-6.8-.9-6.9-7-33.6-9.8-42.5-20.4-67.1-57.3-123.2-111.2-169.2C552.8 62.9 515 39.5 491 29.6c-3.6-1.5-8-3.4-9.8-4.2-11-5-41.9-14.5-58.7-17.9-4.4-.9-8.9-1.9-10-2.1-1.1-.2-3.8-.6-6-.9-2.2-.3-5.1-.7-6.5-1-1.3-.2-5.2-.7-8.6-1.1-3.3-.3-7.4-.8-9-1-3.3-.5-54-1.4-54.6-1z"/><path d="M392.3 388.1c-1.2.4-2.4 1.3-2.8 2-.5.6-.8 29.1-.8 63.2v62.1l2.3 1.8c1.2 1 2.9 1.8 3.7 1.8.8 0 6.2-4.8 12.1-10.8 19.3-19.4 33.7-30.6 57.1-44.2 8-4.6 33.4-17 34.9-17 .5 0 2.1-.9 3.6-2.1l2.6-2v-26.4c0-26.1 0-26.3-2.2-27.7-1.9-1.3-10.6-1.5-55.4-1.5-29.1 0-54 .4-55.1.8zM199.3 436.8c-1.7 1.7-1.5-.7-1.7 25.6-.1 19.2.1 23.2 1.4 24.7.8.9 6 3.5 11.5 5.7 13.4 5.3 47.3 19.1 51 20.7 1.7.7 5.5 2.2 8.5 3.4 3 1.2 6.4 2.6 7.5 3.1 1.1.5 8.7 3.6 16.8 6.9 14.1 5.8 17.1 6.3 18.9 3.7.4-.6.8-21.6.8-46.7 0-40.4-.2-45.8-1.6-47-2.3-1.9-111.1-2-113.1-.1zM367 699c-.9.6-1 1-.3 1 .6 0 1.5-.5 1.8-1 .8-1.2.4-1.2-1.5 0zM340.8 699.7c4.5.2 11.9.2 16.5 0 4.5-.1.8-.3-8.3-.3-9.1 0-12.8.2-8.2.3z"/></svg>