<?xml version="1.0" standalone="no"?>
<!DOCTYPE svg PUBLIC "-//W3C//DTD SVG 20010904//EN"
 "http://www.w3.org/TR/2001/REC-SVG-20010904/DTD/svg10.dtd">
<svg version="1.0" xmlns="http://www.w3.org/2000/svg"
 width="700.000000pt" height="700.000000pt" viewBox="0 0 700.000000 700.000000"
 preserveAspectRatio="xMidYMid meet">
<metadata>
Created by potrace 1.11, written by Peter Selinger 2001-2013
</metadata>
<g transform="translate(0.000000,700.000000) scale(0.100000,-0.100000)"
fill="#000000" stroke="none">
<path d="M3278 6995 c-1 -1 -41 -5 -88 -9 -87 -7 -105 -9 -225 -27 -116 -18
-123 -19 -192 -35 -184 -42 -248 -59 -369 -99 -459 -153 -870 -390 -1229 -709
-358 -318 -681 -756 -860 -1166 -25 -58 -50 -114 -55 -125 -45 -93 -150 -427
-176 -560 -2 -11 -10 -54 -19 -95 -22 -115 -30 -160 -41 -255 -26 -230 -26
-667 1 -826 2 -13 6 -46 9 -74 9 -78 22 -152 51 -285 21 -96 91 -339 114 -395
5 -11 25 -65 46 -120 50 -132 181 -398 250 -508 30 -49 55 -90 55 -93 0 -3 4
-10 10 -17 5 -7 46 -64 91 -126 189 -268 408 -499 679 -716 92 -74 370 -265
386 -265 4 0 15 -6 23 -14 48 -41 382 -199 561 -264 193 -71 470 -143 645
-168 22 -3 47 -7 55 -9 8 -2 47 -7 85 -10 39 -4 84 -9 100 -11 17 -2 98 -6
181 -10 199 -9 242 4 389 115 275 206 471 523 531 856 39 219 20 484 -51 691
-35 99 -98 231 -149 309 -55 84 -168 216 -224 261 -133 109 -305 317 -394 476
-97 176 -175 391 -203 568 -4 25 -9 53 -11 64 -8 44 -16 160 -17 238 -1 377
116 750 332 1053 37 52 50 68 122 150 328 373 818 595 1318 597 99 1 233 -8
284 -18 194 -37 359 -87 489 -148 88 -41 112 -63 140 -125 20 -43 21 -94 3
-181 -32 -159 -40 -194 -80 -325 -15 -49 -32 -96 -37 -102 -6 -7 -8 -13 -5
-13 7 0 -57 -150 -107 -250 -159 -315 -391 -608 -651 -820 -74 -61 -251 -190
-260 -190 -2 0 -28 -15 -57 -34 -187 -119 -531 -259 -631 -257 -109 2 -160 58
-200 221 -38 155 -47 399 -18 498 5 18 10 33 9 35 -3 32 55 206 99 292 77 150
198 296 337 405 66 52 80 73 78 122 -2 58 -63 100 -124 84 -29 -7 -144 -101
-227 -186 -174 -176 -314 -437 -357 -662 -2 -13 -6 -34 -9 -48 -26 -119 -26
-368 0 -505 36 -187 123 -390 234 -545 68 -94 94 -124 197 -216 223 -201 315
-319 424 -544 78 -158 145 -362 166 -496 3 -22 8 -52 10 -69 3 -16 8 -46 10
-65 6 -53 6 -308 -1 -365 -27 -223 -81 -410 -175 -602 -33 -68 -60 -125 -60
-127 0 -8 250 77 330 112 19 9 37 16 40 17 17 4 131 57 225 105 384 196 739
469 1015 780 36 40 72 80 80 89 8 9 44 54 80 101 36 47 67 87 70 90 3 3 29 40
58 83 278 409 469 877 556 1357 14 81 17 101 32 215 3 27 8 61 11 75 8 48 10
525 3 605 -12 128 -21 202 -25 227 -3 13 -8 43 -11 68 -9 69 -70 336 -97 425
-206 676 -584 1248 -1127 1703 -66 56 -304 230 -351 257 -236 137 -500 275
-527 275 -5 0 -22 7 -39 15 -90 45 -416 145 -588 180 -44 9 -89 19 -100 21
-11 2 -38 6 -60 9 -22 3 -51 7 -65 10 -13 2 -52 7 -86 11 -33 3 -74 8 -90 10
-32 5 -540 14 -546 9z m-965 -3330 c209 -43 437 -160 579 -297 50 -50 51 -105
3 -141 -26 -18 -30 -19 -370 -32 -132 -5 -164 -9 -185 -24 -51 -37 -52 -119
-2 -156 30 -22 54 -23 379 -11 179 6 182 6 207 -16 47 -42 39 -78 -31 -146
-181 -174 -415 -293 -663 -338 -78 -14 -326 -12 -410 2 -249 44 -469 157 -657
337 -104 100 -143 160 -144 218 -1 59 13 91 71 164 212 267 541 440 875 462
44 3 81 6 82 7 7 6 196 -15 266 -29z"/>
</g>
</svg>
