<svg width="32" height="32" viewBox="0 0 32 32" fill="none" xmlns="http://www.w3.org/2000/svg">
<path fill-rule="evenodd" clip-rule="evenodd" d="M20.4762 31.3654C27.1342 29.4292 32 23.2828 32 16C32 7.16344 24.8366 0 16 0C7.16344 0 0 7.16344 0 16C0 24.8366 7.16344 32 16 32C16.0363 32 16.0725 31.9999 16.1087 31.9996L16.4844 31.8824C16.5581 31.8594 16.629 31.8282 16.6948 31.7877C17.0687 31.557 17.4206 31.2849 17.7412 30.979C20.0672 28.7604 20.3255 25.1779 18.4634 22.6566C18.3406 22.479 18.0325 22.135 17.8434 21.9386C17.6712 21.7999 17.5126 21.6656 17.3947 21.5557C16.629 20.8415 16.0309 20.0149 15.6022 19.1258C15.5969 19.1142 15.5924 19.1028 15.5879 19.0914C15.5831 19.0794 15.5784 19.0674 15.5728 19.0554C14.1913 16.1174 14.6416 12.5107 16.9907 9.99165C19.5345 7.26371 23.5056 6.66434 26.6732 8.27068C27.0135 8.44327 27.1999 8.81527 27.1453 9.19293C26.8184 11.4543 25.8246 13.6421 24.1484 15.4395C22.695 16.9981 20.9124 18.0636 19.0083 18.6342C18.5732 18.7646 18.1067 18.5531 17.9556 18.1248C17.2682 16.1765 17.7303 13.9174 19.3198 12.4012C19.5089 12.2212 19.7102 12.055 19.9217 11.9043C20.1257 11.759 20.1983 11.4822 20.0706 11.2666C19.943 11.0513 19.664 10.9787 19.4584 11.1214C19.1886 11.3086 18.9325 11.5177 18.6937 11.7456C16.3677 13.9642 16.1094 17.5467 17.9715 20.068C18.1026 20.2576 18.2582 20.4461 18.4415 20.6329C18.4463 20.6383 18.4514 20.6434 18.457 20.6482C18.7431 20.8936 19.0861 21.2081 19.2224 21.3352C19.9882 22.0493 20.4039 22.7097 20.8327 23.5988C20.838 23.6104 20.8425 23.6218 20.847 23.6332C20.8518 23.6452 20.8565 23.6572 20.8621 23.6692C22.0092 26.1088 21.8934 29.0093 20.4762 31.3654ZM13.1225 18.2429C13.4416 18.2318 13.6294 18.5866 13.4116 18.8201C11.2766 21.1097 7.69071 21.2344 5.40187 19.0996C5.19211 18.904 5.00062 18.6961 4.82738 18.4782C4.59739 18.1888 4.58757 17.7837 4.80298 17.4833C4.94189 17.2895 5.09464 17.1024 5.26177 16.9232C7.39657 14.6339 10.9829 14.5086 13.2719 16.6432C13.5465 16.8993 13.3521 17.3277 12.9769 17.3409L10.9423 17.412C10.6923 17.4208 10.4966 17.6306 10.5053 17.8806C10.5139 18.1308 10.7238 18.3265 10.974 18.3178L13.1225 18.2429Z" fill="white"/>
</svg>
