<svg width="225" height="227" viewBox="0 0 225 227" fill="none" xmlns="http://www.w3.org/2000/svg">
<path fill-rule="evenodd" clip-rule="evenodd" d="M224.461 113.172C224.461 175.675 174.213 226.344 112.231 226.344C77.5124 226.344 46.476 210.446 25.89 185.478C9.723 165.869 0 140.665 0 113.172C0 50.669 50.247 0 112.231 0C174.213 0 224.461 50.669 224.461 113.172Z" fill="#0B9E43"/>
<mask id="mask0" mask-type="alpha" maskUnits="userSpaceOnUse" x="0" y="0" width="225" height="227">
<path fill-rule="evenodd" clip-rule="evenodd" d="M224.461 113.172C224.461 175.675 174.213 226.344 112.231 226.344C77.5124 226.344 46.476 210.446 25.89 185.478C9.723 165.869 0 140.665 0 113.172C0 50.669 50.247 0 112.231 0C174.213 0 224.461 50.669 224.461 113.172Z" fill="#0B9E43"/>
</mask>
<g mask="url(#mask0)">
<path fill-rule="evenodd" clip-rule="evenodd" d="M200.61 44C196.448 48.373 201.56 50.099 196.361 55.762C191.976 60.539 190.504 58.303 183.833 59.912C177.668 61.399 177.773 65.634 172.567 69.608C167.424 73.534 160.856 70.025 155.295 73.434C149.732 76.843 149.449 83.042 142.194 85.399C133.431 88.247 121.479 78.477 104.07 103.408C94.1759 117.575 84.9779 108.657 73.4509 115.009C64.4609 119.962 66.8589 130.025 59.9901 142.331C51.2171 158.045 37.8881 150.103 29.3641 159.618C19.5891 170.527 26.1621 185.996 26.1621 185.996L26.0621 186.242C46.6491 210.928 77.4999 226.62 111.99 226.62C173.972 226.62 224.22 175.951 224.22 113.448C224.22 85.645 215.16 63.085 200.61 44Z" fill="#245A92"/>
<path fill-rule="evenodd" clip-rule="evenodd" d="M188.552 81.942C185.947 85.052 185.679 88.11 186.25 90.6154C186.984 93.8364 191.003 94.9674 193.338 92.6304L197.235 88.734C197.235 88.734 205.014 80.955 197.235 73.178C190.925 66.868 189.735 75.914 189.51 79.555C189.456 80.43 189.115 81.27 188.552 81.942Z" fill="#0B9E43"/>
<path fill-rule="evenodd" clip-rule="evenodd" d="M201.5 93C198.463 93 196 95.462 196 98.5C196 101.537 198.463 104 201.5 104C204.536 104 207 101.537 207 98.5C207 95.462 204.536 93 201.5 93Z" fill="#0B9E43"/>
<path fill-rule="evenodd" clip-rule="evenodd" d="M125.383 128.809V167.147C125.383 168.871 127.52 169.646 128.641 168.337C137.332 158.193 149.378 150.536 161.497 145.649C162.195 145.368 162.653 144.699 162.653 143.947V128.809C162.653 127.788 161.824 126.96 160.803 126.96H127.233C126.211 126.96 125.383 127.788 125.383 128.809ZM199.921 116.386V125.111C199.921 126.132 199.093 126.96 198.071 126.96H176.924C175.903 126.96 175.075 127.788 175.075 128.809V139.02C175.075 140.184 176.141 141.067 177.281 140.832C181.155 140.032 184.877 139.554 188.317 139.421C189.387 139.379 190.259 140.2 190.259 141.27V149.983C190.259 150.972 189.485 151.802 188.496 151.835C165.364 152.606 132.52 168.492 125.415 207.594C125.394 207.711 125.383 207.832 125.383 207.952V213.92V251.189C125.383 251.189 125.383 262.455 136.112 263.529C137.067 263.625 137.806 264.407 137.806 265.366V274.186C137.806 275.207 136.979 276.035 135.957 276.035H89.9632C88.9432 276.035 88.1142 275.207 88.1142 274.186V265.754C88.1142 264.609 88.9272 263.605 90.0562 263.418C93.5502 262.836 100.537 260.506 100.537 251.189V187.547C100.537 186.8 100.089 186.127 99.4002 185.84L51.984 166.083C51.294 165.796 50.846 165.123 50.846 164.376V141.231C50.846 140.21 50.018 139.383 48.997 139.383H27.849C26.827 139.383 26 138.555 26 137.534V105.343C26 104.322 26.827 103.494 27.849 103.494H36.573C37.595 103.494 38.423 104.322 38.423 105.343V125.111C38.423 126.132 39.251 126.96 40.272 126.96H49.018C50.03 126.96 50.845 126.14 50.859 125.127C51.11 106.445 55.237 91.843 62.943 80.777C63.154 80.474 63.269 80.116 63.269 79.746V66.694C63.269 65.673 62.441 64.845 61.42 64.845H52.695C51.674 64.845 50.846 64.018 50.846 62.996V54.271C50.846 53.25 51.674 52.422 52.695 52.422H73.8432C74.8632 52.422 75.6922 53.25 75.6922 54.271V64.307C75.6922 65.778 77.3152 66.645 78.5532 65.851C90.1732 58.397 105.306 54.272 123.662 52.93C124.628 52.86 125.383 52.064 125.383 51.095V41.848C125.383 40.827 126.211 40 127.233 40H135.957C136.979 40 137.806 40.827 137.806 41.848V52.422V63.01C137.806 64.026 136.98 64.844 135.964 64.854C88.2022 65.293 63.9762 82.949 63.284 125.085C63.267 126.115 64.1102 126.96 65.1392 126.96H98.6892C99.7102 126.96 100.537 126.132 100.537 125.111V115.917V102.114V92.92C100.537 91.899 101.365 91.071 102.387 91.071H111.112C112.133 91.071 112.96 91.899 112.96 92.92V114.068C112.96 115.089 113.788 115.917 114.81 115.917H135.957C136.979 115.917 137.806 115.089 137.806 114.068V91.54C137.806 90.519 138.634 89.691 139.655 89.691H160.803C161.824 89.691 162.653 88.863 162.653 87.842V79.117C162.653 78.096 163.48 77.268 164.501 77.268H173.226C174.247 77.268 175.075 78.096 175.075 79.117V100.265C175.075 101.286 174.247 102.114 173.226 102.114H152.078C151.057 102.114 150.23 102.942 150.23 103.963V112.688C150.23 113.709 151.057 114.537 152.078 114.537H198.071C199.093 114.537 199.921 115.365 199.921 116.386ZM64.895 158.928L99.289 172.94C100.234 173.325 101.269 172.629 101.269 171.608V143.437C101.269 142.643 100.625 142 99.831 142H65.438C64.644 142 64 142.643 64 143.437V157.597C64 158.181 64.354 158.708 64.895 158.928Z" fill="#FFFCF1"/>
<path fill-rule="evenodd" clip-rule="evenodd" d="M224.461 113.172C224.461 175.675 174.213 226.344 112.231 226.344C77.5124 226.344 46.476 210.446 25.89 185.478C9.723 165.869 0 140.665 0 113.172C0 50.669 50.247 0 112.231 0C174.213 0 224.461 50.669 224.461 113.172Z" fill="#0B9E43"/>
<path fill-rule="evenodd" clip-rule="evenodd" d="M200.61 44C196.448 48.373 201.56 50.099 196.361 55.762C191.976 60.539 190.504 58.303 183.833 59.912C177.668 61.399 177.773 65.634 172.567 69.608C167.424 73.534 160.856 70.025 155.295 73.434C149.732 76.843 149.449 83.042 142.194 85.399C133.431 88.247 121.479 78.477 104.07 103.408C94.1759 117.575 84.9779 108.657 73.4509 115.009C64.4609 119.962 66.8589 130.025 59.9901 142.331C51.2171 158.045 37.8881 150.103 29.3641 159.618C19.5891 170.527 26.1621 185.996 26.1621 185.996L26.0621 186.242C46.6491 210.928 77.4999 226.62 111.99 226.62C173.972 226.62 226.771 176.924 226.771 114.421C226.771 86.6176 217.871 44 200.61 44Z" fill="#245A92"/>
<path fill-rule="evenodd" clip-rule="evenodd" d="M188.552 81.942C185.947 85.052 185.679 88.11 186.25 90.6154C186.984 93.8364 191.003 94.9674 193.338 92.6304L197.235 88.734C197.235 88.734 205.014 80.955 197.235 73.178C190.925 66.868 189.735 75.914 189.51 79.555C189.456 80.43 189.115 81.27 188.552 81.942Z" fill="#0B9E43"/>
<path fill-rule="evenodd" clip-rule="evenodd" d="M201.5 93C198.463 93 196 95.462 196 98.5C196 101.537 198.463 104 201.5 104C204.536 104 207 101.537 207 98.5C207 95.462 204.536 93 201.5 93Z" fill="#0B9E43"/>
<path fill-rule="evenodd" clip-rule="evenodd" d="M199.921 125.111V116.386C199.921 115.365 199.093 114.537 198.071 114.537H152.078C151.057 114.537 150.23 113.709 150.23 112.688V103.963C150.23 102.942 151.057 102.114 152.078 102.114H173.226C174.247 102.114 175.075 101.286 175.075 100.265V79.117C175.075 78.096 174.247 77.268 173.226 77.268H164.501C163.48 77.268 162.653 78.096 162.653 79.117V87.842C162.653 88.863 161.824 89.691 160.803 89.691H139.655C138.634 89.691 137.806 90.519 137.806 91.54V114.068C137.806 115.089 136.979 115.917 135.957 115.917H114.81C113.788 115.917 112.96 115.089 112.96 114.068V92.92C112.96 91.899 112.133 91.071 111.112 91.071H102.387C101.365 91.071 100.537 91.899 100.537 92.92V125.111C100.537 126.132 99.7102 126.96 98.6892 126.96H65.1392C64.1102 126.96 63.267 126.115 63.284 125.085C63.9762 82.949 88.2022 65.293 135.964 64.854C136.98 64.844 137.806 64.026 137.806 63.01V41.848C137.806 40.827 136.979 40 135.957 40H127.233C126.211 40 125.383 40.827 125.383 41.848V51.095C125.383 52.064 124.628 52.86 123.662 52.93C105.306 54.272 90.1732 58.397 78.5532 65.851C77.3152 66.645 75.6922 65.778 75.6922 64.307V54.271C75.6922 53.25 74.8632 52.422 73.8432 52.422H52.695C51.674 52.422 50.846 53.25 50.846 54.271V62.996C50.846 64.018 51.674 64.845 52.695 64.845H61.42C62.441 64.845 63.269 65.673 63.269 66.694V79.746C63.269 80.116 63.154 80.474 62.943 80.777C55.237 91.843 51.11 106.445 50.859 125.127C50.845 126.14 50.03 126.96 49.018 126.96H40.272C39.251 126.96 38.423 126.132 38.423 125.111V105.343C38.423 104.322 37.595 103.494 36.573 103.494H27.849C26.827 103.494 26 104.322 26 105.343V137.534C26 138.555 26.827 139.383 27.849 139.383H48.997C50.018 139.383 50.846 140.21 50.846 141.231V164.376C50.846 165.123 51.294 165.796 51.984 166.083L99.4002 185.84C100.089 186.127 100.537 186.8 100.537 187.547V225.345V226.62H125.415L125.383 207.952C125.383 207.832 125.394 207.711 125.415 207.594C132.52 168.492 165.364 152.606 188.496 151.835C189.485 151.802 190.259 150.972 190.259 149.983V141.27C190.259 140.2 189.387 139.379 188.317 139.421C184.877 139.554 181.155 140.032 177.281 140.832C176.141 141.067 175.075 140.184 175.075 139.02V128.809C175.075 127.788 175.903 126.96 176.924 126.96H198.071C199.093 126.96 199.921 126.132 199.921 125.111ZM125.383 128.809V167.147C125.383 168.871 127.52 169.646 128.641 168.337C137.332 158.193 149.378 150.536 161.497 145.649C162.195 145.368 162.653 144.699 162.653 143.947V128.809C162.653 127.788 161.824 126.96 160.803 126.96H127.233C126.211 126.96 125.383 127.788 125.383 128.809ZM65.1081 159.35L99.5021 173.362C100.447 173.747 101.482 173.051 101.482 172.03V143.859C101.482 143.065 100.838 142.422 100.044 142.422H65.6511C64.8571 142.422 64.2131 143.065 64.2131 143.859V158.019C64.2131 158.603 64.5671 159.13 65.1081 159.35Z" fill="#FFFCF1"/>
</g>
</svg>
