<svg width="960" height="640" viewBox="0 0 960 640" fill="none" xmlns="http://www.w3.org/2000/svg">
<path d="M47 440L124 360L136 367L149 360C153.333 357.333 159.4 350.2 149 343L224 262L291 214L329 183L367.5 165L433 123V117L497 66L595 165L598.5 161L642 176L705 143L744 138L770 183L794 201L852 316L913 488L883 509L861 478L760 497L647 431L633 437.896L513 497L400 574L110 463.915L47 440Z" fill="#0B9E43" fill-opacity="0.15"/>
<path d="M291 214L224 262L149 343C159.4 350.2 153.333 357.333 149 360L136 367L124 360L47 440L110 463.915M291 214L412 343M291 214L329 183L367.5 165L433 123V117L497 66L595 165M595 165L598.5 161L642 176L705 143L744 138L770 183L794 201M595 165L526 232.115M794 201L852 316L913 488L883 509L861 478L760 497L647 431L633 437.896M794 201L736 235V297L705 307L622 360L589.058 367M633 437.896L513 497L400 574L110 463.915M633 437.896L589.058 367M581 354L589.058 367M581 354L583.5 348.5L589.058 351.5L592 348.5L583.5 339L592 333.5L589.058 328.5L595 324.5L607 336L630.5 319.5L624.5 316V310L627 304.5L633 301H637H647L653 304.5L656 301L653 287.5L642 297L633 294.5L630.5 287.5L633 278.5L627 275.5V283.5L622 275.5L615.5 278.5L611 262L559 251L554 262H544M581 354L575 357.5L567 360L554 343V339L548.5 328.5H544V324.5L554 313L548.5 307H539.5L526 291V283.5L520 281V275.5L529 271V275.5L539.5 271L537.5 263.5L544 262M412 343L110 463.915M412 343L526 232.115M526 232.115L544 262" stroke="#0B9E43" stroke-width="3" stroke-linecap="round" stroke-linejoin="round"/>
<path d="M399.343 207V182.232H409.999C411.439 182.232 412.735 182.436 413.887 182.844C415.039 183.228 415.999 183.78 416.767 184.5C417.559 185.22 418.159 186.084 418.567 187.092C418.975 188.1 419.179 189.204 419.179 190.404C419.179 191.628 418.975 192.768 418.567 193.824C418.159 194.856 417.559 195.756 416.767 196.524C415.999 197.268 415.039 197.856 413.887 198.288C412.735 198.696 411.439 198.9 409.999 198.9H404.167V207H399.343ZM409.567 186.12H404.167V195.012H409.567C410.335 195.012 411.007 194.904 411.583 194.688C412.183 194.472 412.675 194.16 413.059 193.752C413.467 193.344 413.767 192.864 413.959 192.312C414.175 191.76 414.283 191.148 414.283 190.476C414.283 189.828 414.175 189.24 413.959 188.712C413.767 188.16 413.467 187.692 413.059 187.308C412.675 186.924 412.183 186.636 411.583 186.444C411.007 186.228 410.335 186.12 409.567 186.12ZM420.809 202.464C420.809 201.72 420.917 201.06 421.133 200.484C421.373 199.884 421.733 199.368 422.213 198.936C422.717 198.48 423.341 198.108 424.085 197.82C424.853 197.508 425.753 197.268 426.785 197.1L430.169 196.596C430.649 196.524 431.033 196.452 431.321 196.38C431.609 196.284 431.825 196.188 431.969 196.092C432.137 195.996 432.245 195.876 432.293 195.732C432.365 195.588 432.401 195.408 432.401 195.192C432.401 194.76 432.329 194.364 432.185 194.004C432.065 193.644 431.873 193.332 431.609 193.068C431.369 192.804 431.045 192.6 430.637 192.456C430.253 192.312 429.797 192.24 429.269 192.24C428.741 192.24 428.261 192.312 427.829 192.456C427.421 192.576 427.073 192.768 426.785 193.032C426.497 193.272 426.269 193.572 426.101 193.932C425.957 194.292 425.861 194.688 425.813 195.12H421.493C421.565 194.16 421.793 193.296 422.177 192.528C422.585 191.76 423.137 191.112 423.833 190.584C424.529 190.056 425.333 189.66 426.245 189.396C427.181 189.132 428.189 189 429.269 189C430.565 189 431.693 189.144 432.653 189.432C433.637 189.696 434.453 190.104 435.101 190.656C435.749 191.184 436.229 191.844 436.541 192.636C436.877 193.428 437.045 194.352 437.045 195.408V207H432.617V204.912H432.401C432.137 205.32 431.813 205.68 431.429 205.992C431.069 206.304 430.649 206.568 430.169 206.784C429.713 207 429.197 207.156 428.621 207.252C428.045 207.372 427.433 207.432 426.785 207.432C425.825 207.432 424.961 207.312 424.193 207.072C423.449 206.832 422.825 206.496 422.321 206.064C421.817 205.632 421.433 205.116 421.169 204.516C420.929 203.892 420.809 203.208 420.809 202.464ZM428.117 204.192C428.669 204.192 429.197 204.108 429.701 203.94C430.229 203.772 430.697 203.508 431.105 203.148C431.513 202.788 431.825 202.344 432.041 201.816C432.281 201.264 432.401 200.628 432.401 199.908V198.36C432.329 198.48 432.233 198.588 432.113 198.684C431.993 198.756 431.861 198.828 431.717 198.9C431.573 198.948 431.417 198.996 431.249 199.044C431.081 199.092 430.889 199.14 430.673 199.188L427.973 199.62C427.517 199.692 427.121 199.8 426.785 199.944C426.449 200.088 426.173 200.268 425.957 200.484C425.765 200.676 425.621 200.904 425.525 201.168C425.429 201.408 425.381 201.684 425.381 201.996C425.381 202.332 425.441 202.644 425.561 202.932C425.681 203.196 425.849 203.424 426.065 203.616C426.305 203.808 426.593 203.952 426.929 204.048C427.265 204.144 427.661 204.192 428.117 204.192ZM441.784 200.952V192.888H438.472V189.432H441.784V184.104H446.392V189.432H450.748V192.888H446.392V200.664C446.392 201.144 446.428 201.552 446.5 201.888C446.596 202.2 446.74 202.464 446.932 202.68C447.124 202.872 447.376 203.016 447.688 203.112C448 203.208 448.384 203.256 448.84 203.256H450.748V207H447.94C446.788 207 445.816 206.892 445.024 206.676C444.256 206.46 443.632 206.112 443.152 205.632C442.672 205.152 442.324 204.54 442.108 203.796C441.892 203.028 441.784 202.08 441.784 200.952ZM454.072 200.952V192.888H450.76V189.432H454.072V184.104H458.68V189.432H463.036V192.888H458.68V200.664C458.68 201.144 458.716 201.552 458.788 201.888C458.884 202.2 459.028 202.464 459.22 202.68C459.412 202.872 459.664 203.016 459.976 203.112C460.288 203.208 460.672 203.256 461.128 203.256H463.036V207H460.228C459.076 207 458.104 206.892 457.312 206.676C456.544 206.46 455.92 206.112 455.44 205.632C454.96 205.152 454.612 204.54 454.396 203.796C454.18 203.028 454.072 202.08 454.072 200.952ZM464.77 198.216C464.77 196.8 464.998 195.528 465.454 194.4C465.91 193.248 466.558 192.276 467.398 191.484C468.238 190.668 469.222 190.056 470.35 189.648C471.502 189.216 472.75 189 474.094 189C475.486 189 476.746 189.204 477.874 189.612C479.026 190.02 480.01 190.632 480.826 191.448C481.642 192.24 482.266 193.212 482.698 194.364C483.154 195.492 483.382 196.776 483.382 198.216C483.382 199.632 483.154 200.916 482.698 202.068C482.242 203.196 481.594 204.168 480.754 204.984C479.914 205.776 478.93 206.388 477.802 206.82C476.674 207.228 475.438 207.432 474.094 207.432C472.702 207.432 471.43 207.228 470.278 206.82C469.126 206.412 468.142 205.812 467.326 205.02C466.51 204.204 465.874 203.232 465.418 202.104C464.986 200.952 464.77 199.656 464.77 198.216ZM469.558 198.216C469.558 199.08 469.666 199.872 469.882 200.592C470.098 201.288 470.398 201.888 470.782 202.392C471.19 202.872 471.67 203.244 472.222 203.508C472.798 203.772 473.422 203.904 474.094 203.904C474.766 203.904 475.378 203.772 475.93 203.508C476.506 203.244 476.986 202.872 477.37 202.392C477.754 201.888 478.054 201.288 478.27 200.592C478.486 199.872 478.594 199.08 478.594 198.216C478.594 197.328 478.486 196.536 478.27 195.84C478.078 195.144 477.778 194.556 477.37 194.076C476.986 193.572 476.506 193.2 475.93 192.96C475.378 192.696 474.766 192.564 474.094 192.564C473.422 192.564 472.798 192.696 472.222 192.96C471.67 193.224 471.19 193.608 470.782 194.112C470.398 194.592 470.098 195.18 469.882 195.876C469.666 196.572 469.558 197.352 469.558 198.216ZM486.542 207V189.432H490.97V191.952H491.114C491.354 191.472 491.654 191.052 492.014 190.692C492.398 190.308 492.818 189.996 493.274 189.756C493.73 189.492 494.222 189.3 494.75 189.18C495.302 189.06 495.89 189 496.514 189C497.45 189 498.326 189.132 499.142 189.396C499.958 189.66 500.666 190.08 501.266 190.656C501.89 191.232 502.382 192 502.742 192.96C503.102 193.896 503.282 195.024 503.282 196.344V207H498.638V196.92C498.638 196.128 498.554 195.456 498.386 194.904C498.242 194.352 498.014 193.908 497.702 193.572C497.414 193.236 497.054 192.996 496.622 192.852C496.214 192.684 495.746 192.6 495.218 192.6C494.642 192.6 494.102 192.72 493.598 192.96C493.118 193.176 492.698 193.512 492.338 193.968C491.978 194.424 491.69 194.976 491.474 195.624C491.282 196.248 491.186 196.956 491.186 197.748V207H486.542Z" fill="#E94256"/>
<path d="M192.274 350V325.232H197.098V335.42H208.762V325.232H213.586V350H208.762V339.524H197.098V350H192.274ZM217.291 345.464C217.291 344.72 217.399 344.06 217.615 343.484C217.855 342.884 218.215 342.368 218.695 341.936C219.199 341.48 219.823 341.108 220.567 340.82C221.335 340.508 222.235 340.268 223.267 340.1L226.651 339.596C227.131 339.524 227.515 339.452 227.803 339.38C228.091 339.284 228.307 339.188 228.451 339.092C228.619 338.996 228.727 338.876 228.775 338.732C228.847 338.588 228.883 338.408 228.883 338.192C228.883 337.76 228.811 337.364 228.667 337.004C228.547 336.644 228.355 336.332 228.091 336.068C227.851 335.804 227.527 335.6 227.119 335.456C226.735 335.312 226.279 335.24 225.751 335.24C225.223 335.24 224.743 335.312 224.311 335.456C223.903 335.576 223.555 335.768 223.267 336.032C222.979 336.272 222.751 336.572 222.583 336.932C222.439 337.292 222.343 337.688 222.295 338.12H217.975C218.047 337.16 218.275 336.296 218.659 335.528C219.067 334.76 219.619 334.112 220.315 333.584C221.011 333.056 221.815 332.66 222.727 332.396C223.663 332.132 224.671 332 225.751 332C227.047 332 228.175 332.144 229.135 332.432C230.119 332.696 230.935 333.104 231.583 333.656C232.231 334.184 232.711 334.844 233.023 335.636C233.359 336.428 233.527 337.352 233.527 338.408V350H229.099V347.912H228.883C228.619 348.32 228.295 348.68 227.911 348.992C227.551 349.304 227.131 349.568 226.651 349.784C226.195 350 225.679 350.156 225.103 350.252C224.527 350.372 223.915 350.432 223.267 350.432C222.307 350.432 221.443 350.312 220.675 350.072C219.931 349.832 219.307 349.496 218.803 349.064C218.299 348.632 217.915 348.116 217.651 347.516C217.411 346.892 217.291 346.208 217.291 345.464ZM224.599 347.192C225.151 347.192 225.679 347.108 226.183 346.94C226.711 346.772 227.179 346.508 227.587 346.148C227.995 345.788 228.307 345.344 228.523 344.816C228.763 344.264 228.883 343.628 228.883 342.908V341.36C228.811 341.48 228.715 341.588 228.595 341.684C228.475 341.756 228.343 341.828 228.199 341.9C228.055 341.948 227.899 341.996 227.731 342.044C227.563 342.092 227.371 342.14 227.155 342.188L224.455 342.62C223.999 342.692 223.603 342.8 223.267 342.944C222.931 343.088 222.655 343.268 222.439 343.484C222.247 343.676 222.103 343.904 222.007 344.168C221.911 344.408 221.863 344.684 221.863 344.996C221.863 345.332 221.923 345.644 222.043 345.932C222.163 346.196 222.331 346.424 222.547 346.616C222.787 346.808 223.075 346.952 223.411 347.048C223.747 347.144 224.143 347.192 224.599 347.192ZM237.618 350V323.648H242.262V350H237.618ZM247.43 350V335.888H244.118V332.432H247.43V330.344C247.43 329.192 247.55 328.196 247.79 327.356C248.054 326.516 248.45 325.832 248.978 325.304C249.53 324.752 250.226 324.344 251.066 324.08C251.93 323.792 252.974 323.648 254.198 323.648H256.682V327.248H254.954C254.402 327.248 253.946 327.308 253.586 327.428C253.226 327.548 252.926 327.728 252.686 327.968C252.47 328.208 252.314 328.52 252.218 328.904C252.122 329.264 252.074 329.708 252.074 330.236V332.432H256.106V335.888H252.074V350H247.43ZM258.115 350V332.432H262.543V334.952H262.687C262.927 334.472 263.227 334.052 263.587 333.692C263.971 333.308 264.391 332.996 264.847 332.756C265.303 332.492 265.795 332.3 266.323 332.18C266.851 332.06 267.415 332 268.015 332C268.663 332 269.275 332.072 269.851 332.216C270.427 332.336 270.955 332.54 271.435 332.828C271.939 333.092 272.383 333.44 272.767 333.872C273.151 334.304 273.475 334.82 273.739 335.42C274.051 334.796 274.423 334.268 274.855 333.836C275.287 333.38 275.755 333.02 276.259 332.756C276.763 332.492 277.291 332.3 277.843 332.18C278.419 332.06 279.019 332 279.643 332C280.555 332 281.395 332.132 282.163 332.396C282.931 332.66 283.603 333.08 284.179 333.656C284.779 334.208 285.235 334.952 285.547 335.888C285.883 336.8 286.051 337.904 286.051 339.2V350H281.407V339.704C281.407 338.96 281.335 338.324 281.191 337.796C281.047 337.268 280.843 336.848 280.579 336.536C280.315 336.2 279.991 335.96 279.607 335.816C279.223 335.672 278.779 335.6 278.275 335.6C277.723 335.6 277.207 335.72 276.727 335.96C276.271 336.176 275.863 336.512 275.503 336.968C275.143 337.4 274.867 337.94 274.675 338.588C274.483 339.212 274.387 339.92 274.387 340.712V350H269.779V339.704C269.779 338.96 269.707 338.324 269.563 337.796C269.419 337.268 269.203 336.848 268.915 336.536C268.651 336.2 268.327 335.96 267.943 335.816C267.583 335.672 267.151 335.6 266.647 335.6C266.095 335.6 265.579 335.72 265.099 335.96C264.643 336.176 264.235 336.5 263.875 336.932C263.515 337.364 263.239 337.904 263.047 338.552C262.855 339.176 262.759 339.884 262.759 340.676V350H258.115ZM289.009 341.216C289.009 339.8 289.237 338.528 289.693 337.4C290.149 336.248 290.797 335.276 291.637 334.484C292.477 333.668 293.461 333.056 294.589 332.648C295.741 332.216 296.989 332 298.333 332C299.725 332 300.985 332.204 302.113 332.612C303.265 333.02 304.249 333.632 305.065 334.448C305.881 335.24 306.505 336.212 306.937 337.364C307.393 338.492 307.621 339.776 307.621 341.216C307.621 342.632 307.393 343.916 306.937 345.068C306.481 346.196 305.833 347.168 304.993 347.984C304.153 348.776 303.169 349.388 302.041 349.82C300.913 350.228 299.677 350.432 298.333 350.432C296.941 350.432 295.669 350.228 294.517 349.82C293.365 349.412 292.381 348.812 291.565 348.02C290.749 347.204 290.113 346.232 289.657 345.104C289.225 343.952 289.009 342.656 289.009 341.216ZM293.797 341.216C293.797 342.08 293.905 342.872 294.121 343.592C294.337 344.288 294.637 344.888 295.021 345.392C295.429 345.872 295.909 346.244 296.461 346.508C297.037 346.772 297.661 346.904 298.333 346.904C299.005 346.904 299.617 346.772 300.169 346.508C300.745 346.244 301.225 345.872 301.609 345.392C301.993 344.888 302.293 344.288 302.509 343.592C302.725 342.872 302.833 342.08 302.833 341.216C302.833 340.328 302.725 339.536 302.509 338.84C302.317 338.144 302.017 337.556 301.609 337.076C301.225 336.572 300.745 336.2 300.169 335.96C299.617 335.696 299.005 335.564 298.333 335.564C297.661 335.564 297.037 335.696 296.461 335.96C295.909 336.224 295.429 336.608 295.021 337.112C294.637 337.592 294.337 338.18 294.121 338.876C293.905 339.572 293.797 340.352 293.797 341.216ZM309.839 341.216C309.839 339.8 310.067 338.528 310.523 337.4C310.979 336.248 311.627 335.276 312.467 334.484C313.307 333.668 314.291 333.056 315.419 332.648C316.571 332.216 317.819 332 319.163 332C320.555 332 321.815 332.204 322.943 332.612C324.095 333.02 325.079 333.632 325.895 334.448C326.711 335.24 327.335 336.212 327.767 337.364C328.223 338.492 328.451 339.776 328.451 341.216C328.451 342.632 328.223 343.916 327.767 345.068C327.311 346.196 326.663 347.168 325.823 347.984C324.983 348.776 323.999 349.388 322.871 349.82C321.743 350.228 320.507 350.432 319.163 350.432C317.771 350.432 316.499 350.228 315.347 349.82C314.195 349.412 313.211 348.812 312.395 348.02C311.579 347.204 310.943 346.232 310.487 345.104C310.055 343.952 309.839 342.656 309.839 341.216ZM314.627 341.216C314.627 342.08 314.735 342.872 314.951 343.592C315.167 344.288 315.467 344.888 315.851 345.392C316.259 345.872 316.739 346.244 317.291 346.508C317.867 346.772 318.491 346.904 319.163 346.904C319.835 346.904 320.447 346.772 320.999 346.508C321.575 346.244 322.055 345.872 322.439 345.392C322.823 344.888 323.123 344.288 323.339 343.592C323.555 342.872 323.663 342.08 323.663 341.216C323.663 340.328 323.555 339.536 323.339 338.84C323.147 338.144 322.847 337.556 322.439 337.076C322.055 336.572 321.575 336.2 320.999 335.96C320.447 335.696 319.835 335.564 319.163 335.564C318.491 335.564 317.867 335.696 317.291 335.96C316.739 336.224 316.259 336.608 315.851 337.112C315.467 337.592 315.167 338.18 314.951 338.876C314.735 339.572 314.627 340.352 314.627 341.216ZM331.611 350V332.432H336.039V334.952H336.183C336.423 334.472 336.723 334.052 337.083 333.692C337.467 333.308 337.887 332.996 338.343 332.756C338.799 332.492 339.291 332.3 339.819 332.18C340.371 332.06 340.959 332 341.583 332C342.519 332 343.395 332.132 344.211 332.396C345.027 332.66 345.735 333.08 346.335 333.656C346.959 334.232 347.451 335 347.811 335.96C348.171 336.896 348.351 338.024 348.351 339.344V350H343.707V339.92C343.707 339.128 343.623 338.456 343.455 337.904C343.311 337.352 343.083 336.908 342.771 336.572C342.483 336.236 342.123 335.996 341.691 335.852C341.283 335.684 340.815 335.6 340.287 335.6C339.711 335.6 339.171 335.72 338.667 335.96C338.187 336.176 337.767 336.512 337.407 336.968C337.047 337.424 336.759 337.976 336.543 338.624C336.351 339.248 336.255 339.956 336.255 340.748V350H331.611Z" fill="#E94256"/>
<path d="M354.096 430V405.232H371.628V409.228H358.92V416.536H369.072V420.496H358.92V430H354.096ZM371.901 421.288C371.901 419.896 372.117 418.624 372.549 417.472C373.005 416.32 373.629 415.336 374.421 414.52C375.237 413.704 376.209 413.08 377.337 412.648C378.465 412.216 379.689 412 381.009 412C382.329 412 383.517 412.192 384.573 412.576C385.629 412.96 386.529 413.536 387.273 414.304C388.041 415.048 388.617 415.972 389.001 417.076C389.409 418.156 389.613 419.38 389.613 420.748V422.044H376.653C376.701 422.836 376.833 423.544 377.049 424.168C377.289 424.792 377.601 425.32 377.985 425.752C378.393 426.16 378.861 426.484 379.389 426.724C379.917 426.94 380.505 427.048 381.153 427.048C381.705 427.048 382.197 426.988 382.629 426.868C383.061 426.724 383.433 426.544 383.745 426.328C384.057 426.088 384.309 425.824 384.501 425.536C384.693 425.248 384.837 424.96 384.933 424.672H389.433C389.289 425.464 388.989 426.208 388.533 426.904C388.101 427.6 387.513 428.212 386.769 428.74C386.049 429.268 385.197 429.688 384.213 430C383.253 430.288 382.209 430.432 381.081 430.432C379.641 430.432 378.345 430.24 377.193 429.856C376.065 429.448 375.105 428.86 374.313 428.092C373.521 427.3 372.921 426.34 372.513 425.212C372.105 424.06 371.901 422.752 371.901 421.288ZM381.009 415.348C380.481 415.348 379.989 415.432 379.533 415.6C379.077 415.768 378.669 416.02 378.309 416.356C377.949 416.668 377.637 417.064 377.373 417.544C377.133 418 376.941 418.54 376.797 419.164H384.897C384.825 418.516 384.681 417.952 384.465 417.472C384.273 416.992 384.009 416.596 383.673 416.284C383.361 415.972 382.977 415.744 382.521 415.6C382.089 415.432 381.585 415.348 381.009 415.348ZM392.725 430V412.432H397.153V415.096H397.225C397.441 414.616 397.693 414.196 397.981 413.836C398.293 413.452 398.641 413.128 399.025 412.864C399.433 412.576 399.877 412.36 400.357 412.216C400.837 412.072 401.353 412 401.905 412C402.097 412 402.289 412.012 402.481 412.036C402.673 412.06 402.865 412.096 403.057 412.144C403.273 412.192 403.489 412.264 403.705 412.36C403.921 412.456 404.137 412.576 404.353 412.72L403.417 416.716C403.225 416.62 403.033 416.536 402.841 416.464C402.649 416.392 402.469 416.332 402.301 416.284C402.133 416.236 401.953 416.2 401.761 416.176C401.593 416.152 401.425 416.14 401.257 416.14C400.609 416.14 400.033 416.284 399.529 416.572C399.049 416.836 398.641 417.22 398.305 417.724C397.993 418.204 397.753 418.78 397.585 419.452C397.441 420.1 397.369 420.82 397.369 421.612V430H392.725ZM405.138 432.16H409.494C409.518 432.568 409.626 432.94 409.818 433.276C410.034 433.636 410.31 433.936 410.646 434.176C411.006 434.44 411.438 434.632 411.942 434.752C412.446 434.896 412.986 434.968 413.562 434.968C414.354 434.968 415.05 434.86 415.65 434.644C416.274 434.428 416.79 434.08 417.198 433.6C417.606 433.12 417.918 432.508 418.134 431.764C418.35 431.02 418.458 430.12 418.458 429.064V427.48H418.314C418.074 427.96 417.762 428.392 417.378 428.776C416.994 429.136 416.55 429.448 416.046 429.712C415.566 429.952 415.026 430.132 414.426 430.252C413.85 430.372 413.226 430.432 412.554 430.432C411.45 430.432 410.418 430.24 409.458 429.856C408.498 429.448 407.658 428.86 406.938 428.092C406.218 427.324 405.654 426.376 405.246 425.248C404.838 424.096 404.634 422.8 404.634 421.36C404.634 419.92 404.838 418.624 405.246 417.472C405.678 416.296 406.266 415.3 407.01 414.484C407.778 413.668 408.654 413.056 409.638 412.648C410.646 412.216 411.714 412 412.842 412C413.49 412 414.09 412.06 414.642 412.18C415.194 412.3 415.698 412.492 416.154 412.756C416.634 412.996 417.054 413.308 417.414 413.692C417.774 414.052 418.074 414.472 418.314 414.952H418.458V412.432H422.886V429.064C422.886 430.672 422.67 432.052 422.238 433.204C421.806 434.38 421.182 435.328 420.366 436.048C419.55 436.792 418.566 437.332 417.414 437.668C416.286 438.028 415.002 438.208 413.562 438.208C412.314 438.208 411.174 438.076 410.142 437.812C409.134 437.572 408.258 437.2 407.514 436.696C406.794 436.216 406.218 435.592 405.786 434.824C405.378 434.056 405.162 433.168 405.138 432.16ZM409.422 421.36C409.422 422.224 409.518 423.004 409.71 423.7C409.926 424.396 410.226 424.984 410.61 425.464C411.018 425.92 411.486 426.28 412.014 426.544C412.566 426.784 413.166 426.904 413.814 426.904C414.462 426.904 415.05 426.772 415.578 426.508C416.13 426.244 416.598 425.872 416.982 425.392C417.39 424.888 417.702 424.288 417.918 423.592C418.134 422.872 418.242 422.08 418.242 421.216V420.964C418.218 420.124 418.086 419.368 417.846 418.696C417.63 418.024 417.318 417.46 416.91 417.004C416.526 416.524 416.07 416.164 415.542 415.924C415.014 415.66 414.438 415.528 413.814 415.528C413.166 415.528 412.566 415.672 412.014 415.96C411.486 416.224 411.018 416.62 410.61 417.148C410.226 417.652 409.926 418.264 409.71 418.984C409.518 419.704 409.422 420.496 409.422 421.36ZM426.927 423.088V412.432H431.571V422.512C431.571 423.304 431.643 423.976 431.787 424.528C431.955 425.08 432.183 425.524 432.471 425.86C432.783 426.196 433.143 426.448 433.551 426.616C433.983 426.76 434.463 426.832 434.991 426.832C435.567 426.832 436.095 426.724 436.575 426.508C437.055 426.268 437.475 425.932 437.835 425.5C438.195 425.044 438.471 424.504 438.663 423.88C438.855 423.232 438.951 422.512 438.951 421.72V412.432H443.559V430H439.167V427.48H439.023C438.783 427.96 438.483 428.392 438.123 428.776C437.763 429.136 437.355 429.448 436.899 429.712C436.443 429.952 435.939 430.132 435.387 430.252C434.859 430.372 434.295 430.432 433.695 430.432C432.759 430.432 431.883 430.3 431.067 430.036C430.251 429.772 429.531 429.352 428.907 428.776C428.307 428.2 427.827 427.444 427.467 426.508C427.107 425.548 426.927 424.408 426.927 423.088ZM446.609 424.96H450.965C450.965 425.392 451.061 425.764 451.253 426.076C451.469 426.388 451.745 426.64 452.081 426.832C452.441 427.024 452.837 427.168 453.269 427.264C453.701 427.336 454.157 427.372 454.637 427.372C455.237 427.372 455.765 427.324 456.221 427.228C456.701 427.132 457.097 426.988 457.409 426.796C457.721 426.604 457.949 426.376 458.093 426.112C458.261 425.848 458.345 425.536 458.345 425.176C458.345 424.864 458.285 424.6 458.165 424.384C458.069 424.168 457.913 423.988 457.697 423.844C457.481 423.7 457.217 423.58 456.905 423.484C456.593 423.364 456.209 423.268 455.753 423.196L452.549 422.692C451.733 422.572 451.001 422.404 450.353 422.188C449.705 421.948 449.129 421.636 448.625 421.252C448.145 420.868 447.761 420.388 447.473 419.812C447.209 419.212 447.077 418.516 447.077 417.724C447.077 416.812 447.269 416.008 447.653 415.312C448.037 414.592 448.577 413.992 449.273 413.512C449.969 413.008 450.785 412.636 451.721 412.396C452.681 412.132 453.713 412 454.817 412C455.945 412 456.977 412.108 457.913 412.324C458.849 412.54 459.653 412.876 460.325 413.332C461.021 413.764 461.549 414.316 461.909 414.988C462.293 415.66 462.485 416.44 462.485 417.328H458.201C458.201 416.944 458.105 416.608 457.913 416.32C457.745 416.008 457.505 415.768 457.193 415.6C456.881 415.408 456.521 415.276 456.113 415.204C455.705 415.108 455.261 415.06 454.781 415.06C454.301 415.06 453.857 415.108 453.449 415.204C453.065 415.3 452.729 415.432 452.441 415.6C452.153 415.768 451.925 415.984 451.757 416.248C451.613 416.512 451.541 416.8 451.541 417.112C451.541 417.4 451.589 417.652 451.685 417.868C451.781 418.06 451.937 418.24 452.153 418.408C452.369 418.552 452.645 418.684 452.981 418.804C453.341 418.924 453.785 419.02 454.313 419.092L457.481 419.596C458.273 419.716 458.981 419.896 459.605 420.136C460.253 420.352 460.829 420.652 461.333 421.036C461.837 421.396 462.233 421.876 462.521 422.476C462.809 423.052 462.953 423.748 462.953 424.564C462.953 425.524 462.749 426.376 462.341 427.12C461.957 427.864 461.393 428.488 460.649 428.992C459.905 429.472 459.017 429.832 457.985 430.072C456.977 430.312 455.861 430.432 454.637 430.432C453.461 430.432 452.381 430.312 451.397 430.072C450.413 429.856 449.561 429.532 448.841 429.1C448.121 428.644 447.569 428.068 447.185 427.372C446.801 426.676 446.609 425.872 446.609 424.96ZM465.017 421.216C465.017 419.8 465.245 418.528 465.701 417.4C466.157 416.248 466.805 415.276 467.645 414.484C468.485 413.668 469.469 413.056 470.597 412.648C471.749 412.216 472.997 412 474.341 412C475.733 412 476.993 412.204 478.121 412.612C479.273 413.02 480.257 413.632 481.073 414.448C481.889 415.24 482.513 416.212 482.945 417.364C483.401 418.492 483.629 419.776 483.629 421.216C483.629 422.632 483.401 423.916 482.945 425.068C482.489 426.196 481.841 427.168 481.001 427.984C480.161 428.776 479.177 429.388 478.049 429.82C476.921 430.228 475.685 430.432 474.341 430.432C472.949 430.432 471.677 430.228 470.525 429.82C469.373 429.412 468.389 428.812 467.573 428.02C466.757 427.204 466.121 426.232 465.665 425.104C465.233 423.952 465.017 422.656 465.017 421.216ZM469.805 421.216C469.805 422.08 469.913 422.872 470.129 423.592C470.345 424.288 470.645 424.888 471.029 425.392C471.437 425.872 471.917 426.244 472.469 426.508C473.045 426.772 473.669 426.904 474.341 426.904C475.013 426.904 475.625 426.772 476.177 426.508C476.753 426.244 477.233 425.872 477.617 425.392C478.001 424.888 478.301 424.288 478.517 423.592C478.733 422.872 478.841 422.08 478.841 421.216C478.841 420.328 478.733 419.536 478.517 418.84C478.325 418.144 478.025 417.556 477.617 417.076C477.233 416.572 476.753 416.2 476.177 415.96C475.625 415.696 475.013 415.564 474.341 415.564C473.669 415.564 473.045 415.696 472.469 415.96C471.917 416.224 471.437 416.608 471.029 417.112C470.645 417.592 470.345 418.18 470.129 418.876C469.913 419.572 469.805 420.352 469.805 421.216ZM486.789 430V412.432H491.217V414.952H491.361C491.601 414.472 491.901 414.052 492.261 413.692C492.645 413.308 493.065 412.996 493.521 412.756C493.977 412.492 494.469 412.3 494.997 412.18C495.549 412.06 496.137 412 496.761 412C497.697 412 498.573 412.132 499.389 412.396C500.205 412.66 500.913 413.08 501.513 413.656C502.137 414.232 502.629 415 502.989 415.96C503.349 416.896 503.529 418.024 503.529 419.344V430H498.885V419.92C498.885 419.128 498.801 418.456 498.633 417.904C498.489 417.352 498.261 416.908 497.949 416.572C497.661 416.236 497.301 415.996 496.869 415.852C496.461 415.684 495.993 415.6 495.465 415.6C494.889 415.6 494.349 415.72 493.845 415.96C493.365 416.176 492.945 416.512 492.585 416.968C492.225 417.424 491.937 417.976 491.721 418.624C491.529 419.248 491.433 419.956 491.433 420.748V430H486.789Z" fill="#E94256"/>
<path d="M732.097 430V405.232H736.921V415.42H748.585V405.232H753.409V430H748.585V419.524H736.921V430H732.097ZM757.113 425.464C757.113 424.72 757.221 424.06 757.437 423.484C757.677 422.884 758.037 422.368 758.517 421.936C759.021 421.48 759.645 421.108 760.389 420.82C761.157 420.508 762.057 420.268 763.089 420.1L766.473 419.596C766.953 419.524 767.337 419.452 767.625 419.38C767.913 419.284 768.129 419.188 768.273 419.092C768.441 418.996 768.549 418.876 768.597 418.732C768.669 418.588 768.705 418.408 768.705 418.192C768.705 417.76 768.633 417.364 768.489 417.004C768.369 416.644 768.177 416.332 767.913 416.068C767.673 415.804 767.349 415.6 766.941 415.456C766.557 415.312 766.101 415.24 765.573 415.24C765.045 415.24 764.565 415.312 764.133 415.456C763.725 415.576 763.377 415.768 763.089 416.032C762.801 416.272 762.573 416.572 762.405 416.932C762.261 417.292 762.165 417.688 762.117 418.12H757.797C757.869 417.16 758.097 416.296 758.481 415.528C758.889 414.76 759.441 414.112 760.137 413.584C760.833 413.056 761.637 412.66 762.549 412.396C763.485 412.132 764.493 412 765.573 412C766.869 412 767.997 412.144 768.957 412.432C769.941 412.696 770.757 413.104 771.405 413.656C772.053 414.184 772.533 414.844 772.845 415.636C773.181 416.428 773.349 417.352 773.349 418.408V430H768.921V427.912H768.705C768.441 428.32 768.117 428.68 767.733 428.992C767.373 429.304 766.953 429.568 766.473 429.784C766.017 430 765.501 430.156 764.925 430.252C764.349 430.372 763.737 430.432 763.089 430.432C762.129 430.432 761.265 430.312 760.497 430.072C759.753 429.832 759.129 429.496 758.625 429.064C758.121 428.632 757.737 428.116 757.473 427.516C757.233 426.892 757.113 426.208 757.113 425.464ZM764.421 427.192C764.973 427.192 765.501 427.108 766.005 426.94C766.533 426.772 767.001 426.508 767.409 426.148C767.817 425.788 768.129 425.344 768.345 424.816C768.585 424.264 768.705 423.628 768.705 422.908V421.36C768.633 421.48 768.537 421.588 768.417 421.684C768.297 421.756 768.165 421.828 768.021 421.9C767.877 421.948 767.721 421.996 767.553 422.044C767.385 422.092 767.193 422.14 766.977 422.188L764.277 422.62C763.821 422.692 763.425 422.8 763.089 422.944C762.753 423.088 762.477 423.268 762.261 423.484C762.069 423.676 761.925 423.904 761.829 424.168C761.733 424.408 761.685 424.684 761.685 424.996C761.685 425.332 761.745 425.644 761.865 425.932C761.985 426.196 762.153 426.424 762.369 426.616C762.609 426.808 762.897 426.952 763.233 427.048C763.569 427.144 763.965 427.192 764.421 427.192ZM777.441 430V412.432H781.869V415.096H781.941C782.157 414.616 782.409 414.196 782.697 413.836C783.009 413.452 783.357 413.128 783.741 412.864C784.149 412.576 784.593 412.36 785.073 412.216C785.553 412.072 786.069 412 786.621 412C786.813 412 787.005 412.012 787.197 412.036C787.389 412.06 787.581 412.096 787.773 412.144C787.989 412.192 788.205 412.264 788.421 412.36C788.637 412.456 788.853 412.576 789.069 412.72L788.133 416.716C787.941 416.62 787.749 416.536 787.557 416.464C787.365 416.392 787.185 416.332 787.017 416.284C786.849 416.236 786.669 416.2 786.477 416.176C786.309 416.152 786.141 416.14 785.973 416.14C785.325 416.14 784.749 416.284 784.245 416.572C783.765 416.836 783.357 417.22 783.021 417.724C782.709 418.204 782.469 418.78 782.301 419.452C782.157 420.1 782.085 420.82 782.085 421.612V430H777.441ZM790.924 430V412.432H795.352V415.096H795.424C795.64 414.616 795.892 414.196 796.18 413.836C796.492 413.452 796.84 413.128 797.224 412.864C797.632 412.576 798.076 412.36 798.556 412.216C799.036 412.072 799.552 412 800.104 412C800.296 412 800.488 412.012 800.68 412.036C800.872 412.06 801.064 412.096 801.256 412.144C801.472 412.192 801.688 412.264 801.904 412.36C802.12 412.456 802.336 412.576 802.552 412.72L801.616 416.716C801.424 416.62 801.232 416.536 801.04 416.464C800.848 416.392 800.668 416.332 800.5 416.284C800.332 416.236 800.152 416.2 799.96 416.176C799.792 416.152 799.624 416.14 799.456 416.14C798.808 416.14 798.232 416.284 797.728 416.572C797.248 416.836 796.84 417.22 796.504 417.724C796.192 418.204 795.952 418.78 795.784 419.452C795.64 420.1 795.568 420.82 795.568 421.612V430H790.924ZM804.263 407.968V403.648H809.195V407.968H804.263ZM804.407 430V412.432H809.051V430H804.407ZM812.059 424.96H816.415C816.415 425.392 816.511 425.764 816.703 426.076C816.919 426.388 817.195 426.64 817.531 426.832C817.891 427.024 818.287 427.168 818.719 427.264C819.151 427.336 819.607 427.372 820.087 427.372C820.687 427.372 821.215 427.324 821.671 427.228C822.151 427.132 822.547 426.988 822.859 426.796C823.171 426.604 823.399 426.376 823.543 426.112C823.711 425.848 823.795 425.536 823.795 425.176C823.795 424.864 823.735 424.6 823.615 424.384C823.519 424.168 823.363 423.988 823.147 423.844C822.931 423.7 822.667 423.58 822.355 423.484C822.043 423.364 821.659 423.268 821.203 423.196L817.999 422.692C817.183 422.572 816.451 422.404 815.803 422.188C815.155 421.948 814.579 421.636 814.075 421.252C813.595 420.868 813.211 420.388 812.923 419.812C812.659 419.212 812.527 418.516 812.527 417.724C812.527 416.812 812.719 416.008 813.103 415.312C813.487 414.592 814.027 413.992 814.723 413.512C815.419 413.008 816.235 412.636 817.171 412.396C818.131 412.132 819.163 412 820.267 412C821.395 412 822.427 412.108 823.363 412.324C824.299 412.54 825.103 412.876 825.775 413.332C826.471 413.764 826.999 414.316 827.359 414.988C827.743 415.66 827.935 416.44 827.935 417.328H823.651C823.651 416.944 823.555 416.608 823.363 416.32C823.195 416.008 822.955 415.768 822.643 415.6C822.331 415.408 821.971 415.276 821.563 415.204C821.155 415.108 820.711 415.06 820.231 415.06C819.751 415.06 819.307 415.108 818.899 415.204C818.515 415.3 818.179 415.432 817.891 415.6C817.603 415.768 817.375 415.984 817.207 416.248C817.063 416.512 816.991 416.8 816.991 417.112C816.991 417.4 817.039 417.652 817.135 417.868C817.231 418.06 817.387 418.24 817.603 418.408C817.819 418.552 818.095 418.684 818.431 418.804C818.791 418.924 819.235 419.02 819.763 419.092L822.931 419.596C823.723 419.716 824.431 419.896 825.055 420.136C825.703 420.352 826.279 420.652 826.783 421.036C827.287 421.396 827.683 421.876 827.971 422.476C828.259 423.052 828.403 423.748 828.403 424.564C828.403 425.524 828.199 426.376 827.791 427.12C827.407 427.864 826.843 428.488 826.099 428.992C825.355 429.472 824.467 429.832 823.435 430.072C822.427 430.312 821.311 430.432 820.087 430.432C818.911 430.432 817.831 430.312 816.847 430.072C815.863 429.856 815.011 429.532 814.291 429.1C813.571 428.644 813.019 428.068 812.635 427.372C812.251 426.676 812.059 425.872 812.059 424.96Z" fill="#E94256"/>
<path d="M583.906 213.616C583.906 211.792 584.194 210.1 584.77 208.54C585.346 206.98 586.174 205.624 587.254 204.472C588.358 203.296 589.666 202.396 591.178 201.772C592.714 201.124 594.406 200.8 596.254 200.8C597.766 200.8 599.146 201.004 600.394 201.412C601.642 201.796 602.734 202.372 603.67 203.14C604.606 203.884 605.374 204.784 605.974 205.84C606.574 206.896 606.994 208.084 607.234 209.404H602.41C602.218 208.684 601.942 208.048 601.582 207.496C601.222 206.944 600.778 206.476 600.25 206.092C599.746 205.708 599.158 205.42 598.486 205.228C597.814 205.036 597.07 204.94 596.254 204.94C595.126 204.94 594.106 205.156 593.194 205.588C592.282 205.996 591.502 206.584 590.854 207.352C590.206 208.12 589.714 209.044 589.378 210.124C589.042 211.18 588.874 212.344 588.874 213.616C588.874 214.864 589.042 216.016 589.378 217.072C589.738 218.128 590.242 219.052 590.89 219.844C591.538 220.612 592.318 221.212 593.23 221.644C594.142 222.076 595.15 222.292 596.254 222.292C597.118 222.292 597.886 222.196 598.558 222.004C599.254 221.812 599.842 221.524 600.322 221.14C600.826 220.756 601.246 220.288 601.582 219.736C601.942 219.184 602.218 218.548 602.41 217.828H607.234C606.994 219.148 606.574 220.336 605.974 221.392C605.374 222.448 604.594 223.36 603.634 224.128C602.698 224.872 601.594 225.448 600.322 225.856C599.074 226.24 597.694 226.432 596.182 226.432C594.31 226.432 592.606 226.12 591.07 225.496C589.558 224.848 588.262 223.948 587.182 222.796C586.126 221.644 585.31 220.288 584.734 218.728C584.182 217.168 583.906 215.464 583.906 213.616ZM609.829 217.216C609.829 215.8 610.057 214.528 610.513 213.4C610.969 212.248 611.617 211.276 612.457 210.484C613.297 209.668 614.281 209.056 615.409 208.648C616.561 208.216 617.809 208 619.153 208C620.545 208 621.805 208.204 622.933 208.612C624.085 209.02 625.069 209.632 625.885 210.448C626.701 211.24 627.325 212.212 627.757 213.364C628.213 214.492 628.441 215.776 628.441 217.216C628.441 218.632 628.213 219.916 627.757 221.068C627.301 222.196 626.653 223.168 625.813 223.984C624.973 224.776 623.989 225.388 622.861 225.82C621.733 226.228 620.497 226.432 619.153 226.432C617.761 226.432 616.489 226.228 615.337 225.82C614.185 225.412 613.201 224.812 612.385 224.02C611.569 223.204 610.933 222.232 610.477 221.104C610.045 219.952 609.829 218.656 609.829 217.216ZM614.617 217.216C614.617 218.08 614.725 218.872 614.941 219.592C615.157 220.288 615.457 220.888 615.841 221.392C616.249 221.872 616.729 222.244 617.281 222.508C617.857 222.772 618.481 222.904 619.153 222.904C619.825 222.904 620.437 222.772 620.989 222.508C621.565 222.244 622.045 221.872 622.429 221.392C622.813 220.888 623.113 220.288 623.329 219.592C623.545 218.872 623.653 218.08 623.653 217.216C623.653 216.328 623.545 215.536 623.329 214.84C623.137 214.144 622.837 213.556 622.429 213.076C622.045 212.572 621.565 212.2 620.989 211.96C620.437 211.696 619.825 211.564 619.153 211.564C618.481 211.564 617.857 211.696 617.281 211.96C616.729 212.224 616.249 212.608 615.841 213.112C615.457 213.592 615.157 214.18 614.941 214.876C614.725 215.572 614.617 216.352 614.617 217.216ZM631.601 226V199.648H636.245V226H631.601ZM640.549 226V199.648H645.193V226H640.549ZM648.273 217.288C648.273 215.896 648.489 214.624 648.921 213.472C649.377 212.32 650.001 211.336 650.793 210.52C651.609 209.704 652.581 209.08 653.709 208.648C654.837 208.216 656.061 208 657.381 208C658.701 208 659.889 208.192 660.945 208.576C662.001 208.96 662.901 209.536 663.645 210.304C664.413 211.048 664.989 211.972 665.373 213.076C665.781 214.156 665.985 215.38 665.985 216.748V218.044H653.025C653.073 218.836 653.205 219.544 653.421 220.168C653.661 220.792 653.973 221.32 654.357 221.752C654.765 222.16 655.233 222.484 655.761 222.724C656.289 222.94 656.877 223.048 657.525 223.048C658.077 223.048 658.569 222.988 659.001 222.868C659.433 222.724 659.805 222.544 660.117 222.328C660.429 222.088 660.681 221.824 660.873 221.536C661.065 221.248 661.209 220.96 661.305 220.672H665.805C665.661 221.464 665.361 222.208 664.905 222.904C664.473 223.6 663.885 224.212 663.141 224.74C662.421 225.268 661.569 225.688 660.585 226C659.625 226.288 658.581 226.432 657.453 226.432C656.013 226.432 654.717 226.24 653.565 225.856C652.437 225.448 651.477 224.86 650.685 224.092C649.893 223.3 649.293 222.34 648.885 221.212C648.477 220.06 648.273 218.752 648.273 217.288ZM657.381 211.348C656.853 211.348 656.361 211.432 655.905 211.6C655.449 211.768 655.041 212.02 654.681 212.356C654.321 212.668 654.009 213.064 653.745 213.544C653.505 214 653.313 214.54 653.169 215.164H661.269C661.197 214.516 661.053 213.952 660.837 213.472C660.645 212.992 660.381 212.596 660.045 212.284C659.733 211.972 659.349 211.744 658.893 211.6C658.461 211.432 657.957 211.348 657.381 211.348ZM668.801 228.16H673.157C673.181 228.568 673.289 228.94 673.481 229.276C673.697 229.636 673.973 229.936 674.309 230.176C674.669 230.44 675.101 230.632 675.605 230.752C676.109 230.896 676.649 230.968 677.225 230.968C678.017 230.968 678.713 230.86 679.313 230.644C679.937 230.428 680.453 230.08 680.861 229.6C681.269 229.12 681.581 228.508 681.797 227.764C682.013 227.02 682.121 226.12 682.121 225.064V223.48H681.977C681.737 223.96 681.425 224.392 681.041 224.776C680.657 225.136 680.213 225.448 679.709 225.712C679.229 225.952 678.689 226.132 678.089 226.252C677.513 226.372 676.889 226.432 676.217 226.432C675.113 226.432 674.081 226.24 673.121 225.856C672.161 225.448 671.321 224.86 670.601 224.092C669.881 223.324 669.317 222.376 668.909 221.248C668.501 220.096 668.297 218.8 668.297 217.36C668.297 215.92 668.501 214.624 668.909 213.472C669.341 212.296 669.929 211.3 670.673 210.484C671.441 209.668 672.317 209.056 673.301 208.648C674.309 208.216 675.377 208 676.505 208C677.153 208 677.753 208.06 678.305 208.18C678.857 208.3 679.361 208.492 679.817 208.756C680.297 208.996 680.717 209.308 681.077 209.692C681.437 210.052 681.737 210.472 681.977 210.952H682.121V208.432H686.549V225.064C686.549 226.672 686.333 228.052 685.901 229.204C685.469 230.38 684.845 231.328 684.029 232.048C683.213 232.792 682.229 233.332 681.077 233.668C679.949 234.028 678.665 234.208 677.225 234.208C675.977 234.208 674.837 234.076 673.805 233.812C672.797 233.572 671.921 233.2 671.177 232.696C670.457 232.216 669.881 231.592 669.449 230.824C669.041 230.056 668.825 229.168 668.801 228.16ZM673.085 217.36C673.085 218.224 673.181 219.004 673.373 219.7C673.589 220.396 673.889 220.984 674.273 221.464C674.681 221.92 675.149 222.28 675.677 222.544C676.229 222.784 676.829 222.904 677.477 222.904C678.125 222.904 678.713 222.772 679.241 222.508C679.793 222.244 680.261 221.872 680.645 221.392C681.053 220.888 681.365 220.288 681.581 219.592C681.797 218.872 681.905 218.08 681.905 217.216V216.964C681.881 216.124 681.749 215.368 681.509 214.696C681.293 214.024 680.981 213.46 680.573 213.004C680.189 212.524 679.733 212.164 679.205 211.924C678.677 211.66 678.101 211.528 677.477 211.528C676.829 211.528 676.229 211.672 675.677 211.96C675.149 212.224 674.681 212.62 674.273 213.148C673.889 213.652 673.589 214.264 673.373 214.984C673.181 215.704 673.085 216.496 673.085 217.36ZM689.654 217.288C689.654 215.896 689.87 214.624 690.302 213.472C690.758 212.32 691.382 211.336 692.174 210.52C692.99 209.704 693.962 209.08 695.09 208.648C696.218 208.216 697.442 208 698.762 208C700.082 208 701.27 208.192 702.326 208.576C703.382 208.96 704.282 209.536 705.026 210.304C705.794 211.048 706.37 211.972 706.754 213.076C707.162 214.156 707.366 215.38 707.366 216.748V218.044H694.406C694.454 218.836 694.586 219.544 694.802 220.168C695.042 220.792 695.354 221.32 695.738 221.752C696.146 222.16 696.614 222.484 697.142 222.724C697.67 222.94 698.258 223.048 698.906 223.048C699.458 223.048 699.95 222.988 700.382 222.868C700.814 222.724 701.186 222.544 701.498 222.328C701.81 222.088 702.062 221.824 702.254 221.536C702.446 221.248 702.59 220.96 702.686 220.672H707.186C707.042 221.464 706.742 222.208 706.286 222.904C705.854 223.6 705.266 224.212 704.522 224.74C703.802 225.268 702.95 225.688 701.966 226C701.006 226.288 699.962 226.432 698.834 226.432C697.394 226.432 696.098 226.24 694.946 225.856C693.818 225.448 692.858 224.86 692.066 224.092C691.274 223.3 690.674 222.34 690.266 221.212C689.858 220.06 689.654 218.752 689.654 217.288ZM698.762 211.348C698.234 211.348 697.742 211.432 697.286 211.6C696.83 211.768 696.422 212.02 696.062 212.356C695.702 212.668 695.39 213.064 695.126 213.544C694.886 214 694.694 214.54 694.55 215.164H702.65C702.578 214.516 702.434 213.952 702.218 213.472C702.026 212.992 701.762 212.596 701.426 212.284C701.114 211.972 700.73 211.744 700.274 211.6C699.842 211.432 699.338 211.348 698.762 211.348Z" fill="#E94256"/>
<path d="M543.979 300V286.24H550.479C551.239 286.24 551.899 286.32 552.459 286.48C553.032 286.64 553.505 286.88 553.879 287.2C554.252 287.507 554.525 287.88 554.699 288.32C554.885 288.76 554.979 289.267 554.979 289.84C554.979 290.173 554.932 290.487 554.839 290.78C554.759 291.073 554.625 291.347 554.439 291.6C554.265 291.853 554.039 292.073 553.759 292.26C553.492 292.433 553.179 292.573 552.819 292.68V292.76C553.232 292.84 553.605 292.973 553.939 293.16C554.285 293.347 554.572 293.58 554.799 293.86C555.039 294.127 555.219 294.44 555.339 294.8C555.472 295.147 555.539 295.52 555.539 295.92C555.539 296.507 555.439 297.053 555.239 297.56C555.039 298.053 554.739 298.487 554.339 298.86C553.952 299.22 553.465 299.5 552.879 299.7C552.292 299.9 551.625 300 550.879 300H543.979ZM550.519 293.9H546.679V297.88H550.499C550.885 297.88 551.225 297.833 551.519 297.74C551.812 297.633 552.052 297.493 552.239 297.32C552.439 297.133 552.585 296.913 552.679 296.66C552.772 296.407 552.819 296.127 552.819 295.82C552.819 295.527 552.772 295.267 552.679 295.04C552.585 294.8 552.439 294.6 552.239 294.44C552.052 294.267 551.812 294.133 551.519 294.04C551.225 293.947 550.892 293.9 550.519 293.9ZM550.139 288.36H546.679V291.9H550.119C550.479 291.9 550.792 291.853 551.059 291.76C551.339 291.667 551.572 291.54 551.759 291.38C551.945 291.207 552.079 291.007 552.159 290.78C552.252 290.553 552.299 290.3 552.299 290.02C552.299 289.767 552.259 289.54 552.179 289.34C552.099 289.14 551.972 288.967 551.799 288.82C551.625 288.673 551.399 288.56 551.119 288.48C550.852 288.4 550.525 288.36 550.139 288.36ZM556.802 295.12C556.802 294.333 556.929 293.627 557.182 293C557.436 292.36 557.796 291.82 558.262 291.38C558.729 290.927 559.276 290.587 559.902 290.36C560.542 290.12 561.236 290 561.982 290C562.756 290 563.456 290.113 564.082 290.34C564.722 290.567 565.269 290.907 565.722 291.36C566.176 291.8 566.522 292.34 566.762 292.98C567.016 293.607 567.142 294.32 567.142 295.12C567.142 295.907 567.016 296.62 566.762 297.26C566.509 297.887 566.149 298.427 565.682 298.88C565.216 299.32 564.669 299.66 564.042 299.9C563.416 300.127 562.729 300.24 561.982 300.24C561.209 300.24 560.502 300.127 559.862 299.9C559.222 299.673 558.676 299.34 558.222 298.9C557.769 298.447 557.416 297.907 557.162 297.28C556.922 296.64 556.802 295.92 556.802 295.12ZM559.462 295.12C559.462 295.6 559.522 296.04 559.642 296.44C559.762 296.827 559.929 297.16 560.142 297.44C560.369 297.707 560.636 297.913 560.942 298.06C561.262 298.207 561.609 298.28 561.982 298.28C562.356 298.28 562.696 298.207 563.002 298.06C563.322 297.913 563.589 297.707 563.802 297.44C564.016 297.16 564.182 296.827 564.302 296.44C564.422 296.04 564.482 295.6 564.482 295.12C564.482 294.627 564.422 294.187 564.302 293.8C564.196 293.413 564.029 293.087 563.802 292.82C563.589 292.54 563.322 292.333 563.002 292.2C562.696 292.053 562.356 291.98 561.982 291.98C561.609 291.98 561.262 292.053 560.942 292.2C560.636 292.347 560.369 292.56 560.142 292.84C559.929 293.107 559.762 293.433 559.642 293.82C559.522 294.207 559.462 294.64 559.462 295.12ZM568.898 300V290.24H571.358V291.72H571.398C571.518 291.453 571.658 291.22 571.818 291.02C571.991 290.807 572.184 290.627 572.398 290.48C572.624 290.32 572.871 290.2 573.138 290.12C573.404 290.04 573.691 290 573.998 290C574.104 290 574.211 290.007 574.318 290.02C574.424 290.033 574.531 290.053 574.638 290.08C574.758 290.107 574.878 290.147 574.998 290.2C575.118 290.253 575.238 290.32 575.358 290.4L574.838 292.62C574.731 292.567 574.624 292.52 574.518 292.48C574.411 292.44 574.311 292.407 574.218 292.38C574.124 292.353 574.024 292.333 573.918 292.32C573.824 292.307 573.731 292.3 573.638 292.3C573.278 292.3 572.958 292.38 572.678 292.54C572.411 292.687 572.184 292.9 571.998 293.18C571.824 293.447 571.691 293.767 571.598 294.14C571.518 294.5 571.478 294.9 571.478 295.34V300H568.898ZM575.514 295.12C575.514 294.333 575.641 293.627 575.894 293C576.147 292.36 576.507 291.82 576.974 291.38C577.441 290.927 577.987 290.587 578.614 290.36C579.254 290.12 579.947 290 580.694 290C581.467 290 582.167 290.113 582.794 290.34C583.434 290.567 583.981 290.907 584.434 291.36C584.887 291.8 585.234 292.34 585.474 292.98C585.727 293.607 585.854 294.32 585.854 295.12C585.854 295.907 585.727 296.62 585.474 297.26C585.221 297.887 584.861 298.427 584.394 298.88C583.927 299.32 583.381 299.66 582.754 299.9C582.127 300.127 581.441 300.24 580.694 300.24C579.921 300.24 579.214 300.127 578.574 299.9C577.934 299.673 577.387 299.34 576.934 298.9C576.481 298.447 576.127 297.907 575.874 297.28C575.634 296.64 575.514 295.92 575.514 295.12ZM578.174 295.12C578.174 295.6 578.234 296.04 578.354 296.44C578.474 296.827 578.641 297.16 578.854 297.44C579.081 297.707 579.347 297.913 579.654 298.06C579.974 298.207 580.321 298.28 580.694 298.28C581.067 298.28 581.407 298.207 581.714 298.06C582.034 297.913 582.301 297.707 582.514 297.44C582.727 297.16 582.894 296.827 583.014 296.44C583.134 296.04 583.194 295.6 583.194 295.12C583.194 294.627 583.134 294.187 583.014 293.8C582.907 293.413 582.741 293.087 582.514 292.82C582.301 292.54 582.034 292.333 581.714 292.2C581.407 292.053 581.067 291.98 580.694 291.98C580.321 291.98 579.974 292.053 579.654 292.2C579.347 292.347 579.081 292.56 578.854 292.84C578.641 293.107 578.474 293.433 578.354 293.82C578.234 294.207 578.174 294.64 578.174 295.12ZM587.449 296.16V290.24H590.029V295.84C590.029 296.28 590.069 296.653 590.149 296.96C590.243 297.267 590.369 297.513 590.529 297.7C590.703 297.887 590.903 298.027 591.129 298.12C591.369 298.2 591.636 298.24 591.929 298.24C592.249 298.24 592.543 298.18 592.809 298.06C593.076 297.927 593.309 297.74 593.509 297.5C593.709 297.247 593.863 296.947 593.969 296.6C594.076 296.24 594.129 295.84 594.129 295.4V290.24H596.689V300H594.249V298.6H594.169C594.036 298.867 593.869 299.107 593.669 299.32C593.469 299.52 593.243 299.693 592.989 299.84C592.736 299.973 592.456 300.073 592.149 300.14C591.856 300.207 591.543 300.24 591.209 300.24C590.689 300.24 590.203 300.167 589.749 300.02C589.296 299.873 588.896 299.64 588.549 299.32C588.216 299 587.949 298.58 587.749 298.06C587.549 297.527 587.449 296.893 587.449 296.16ZM598.744 301.2H601.164C601.177 301.427 601.237 301.633 601.344 301.82C601.464 302.02 601.617 302.187 601.804 302.32C602.004 302.467 602.244 302.573 602.524 302.64C602.804 302.72 603.104 302.76 603.424 302.76C603.864 302.76 604.251 302.7 604.584 302.58C604.931 302.46 605.217 302.267 605.444 302C605.671 301.733 605.844 301.393 605.964 300.98C606.084 300.567 606.144 300.067 606.144 299.48V298.6H606.064C605.931 298.867 605.757 299.107 605.544 299.32C605.331 299.52 605.084 299.693 604.804 299.84C604.537 299.973 604.237 300.073 603.904 300.14C603.584 300.207 603.237 300.24 602.864 300.24C602.251 300.24 601.677 300.133 601.144 299.92C600.611 299.693 600.144 299.367 599.744 298.94C599.344 298.513 599.031 297.987 598.804 297.36C598.577 296.72 598.464 296 598.464 295.2C598.464 294.4 598.577 293.68 598.804 293.04C599.044 292.387 599.371 291.833 599.784 291.38C600.211 290.927 600.697 290.587 601.244 290.36C601.804 290.12 602.397 290 603.024 290C603.384 290 603.717 290.033 604.024 290.1C604.331 290.167 604.611 290.273 604.864 290.42C605.131 290.553 605.364 290.727 605.564 290.94C605.764 291.14 605.931 291.373 606.064 291.64H606.144V290.24H608.604V299.48C608.604 300.373 608.484 301.14 608.244 301.78C608.004 302.433 607.657 302.96 607.204 303.36C606.751 303.773 606.204 304.073 605.564 304.26C604.937 304.46 604.224 304.56 603.424 304.56C602.731 304.56 602.097 304.487 601.524 304.34C600.964 304.207 600.477 304 600.064 303.72C599.664 303.453 599.344 303.107 599.104 302.68C598.877 302.253 598.757 301.76 598.744 301.2ZM601.124 295.2C601.124 295.68 601.177 296.113 601.284 296.5C601.404 296.887 601.571 297.213 601.784 297.48C602.011 297.733 602.271 297.933 602.564 298.08C602.871 298.213 603.204 298.28 603.564 298.28C603.924 298.28 604.251 298.207 604.544 298.06C604.851 297.913 605.111 297.707 605.324 297.44C605.551 297.16 605.724 296.827 605.844 296.44C605.964 296.04 606.024 295.6 606.024 295.12V294.98C606.011 294.513 605.937 294.093 605.804 293.72C605.684 293.347 605.511 293.033 605.284 292.78C605.071 292.513 604.817 292.313 604.524 292.18C604.231 292.033 603.911 291.96 603.564 291.96C603.204 291.96 602.871 292.04 602.564 292.2C602.271 292.347 602.011 292.567 601.784 292.86C601.571 293.14 601.404 293.48 601.284 293.88C601.177 294.28 601.124 294.72 601.124 295.2ZM611.009 300V285.36H613.589V288.36C613.589 288.613 613.589 288.847 613.589 289.06C613.589 289.273 613.582 289.527 613.569 289.82C613.569 290.1 613.555 290.4 613.529 290.72C613.515 291.027 613.495 291.333 613.469 291.64H613.549C613.682 291.373 613.849 291.14 614.049 290.94C614.262 290.727 614.495 290.553 614.749 290.42C615.002 290.273 615.275 290.167 615.569 290.1C615.875 290.033 616.202 290 616.549 290C617.069 290 617.555 290.073 618.009 290.22C618.462 290.367 618.855 290.6 619.189 290.92C619.535 291.24 619.809 291.667 620.009 292.2C620.209 292.72 620.309 293.347 620.309 294.08V300H617.729V294.4C617.729 293.96 617.682 293.587 617.589 293.28C617.509 292.973 617.382 292.727 617.209 292.54C617.049 292.353 616.849 292.22 616.609 292.14C616.382 292.047 616.122 292 615.829 292C615.509 292 615.209 292.067 614.929 292.2C614.662 292.32 614.429 292.507 614.229 292.76C614.029 293 613.869 293.3 613.749 293.66C613.642 294.007 613.589 294.4 613.589 294.84V300H611.009Z" fill="#E94256"/>
<path d="M151.5 159L126 172L90.5 157L82 159H59.5H47V154.5L53.5 140.5H59.5L63 131H68L75.5 117V113H79.5L86.5 108V101.5H92L94.5 105.5L102.5 101.5L100 99L102.5 95L107 91.5L102.5 84.5L107 81L102.5 77L97 60H102.5L107 55.5L111 52.5L117 55.5L122.5 47V39L126 34.5L128.5 39V34.5H134L139 28V47H158.5V55.5L167.5 65H180L200.5 77L198 81L211 101.5L242.5 95L280 81L267.5 95L257.5 113L239 131L191 154.5L174 165L170.5 162.5L161.5 165L151.5 159Z" fill="#8492A6" fill-opacity="0.15" stroke="#8492A6" stroke-width="3" stroke-linecap="round" stroke-linejoin="round"/>
<path d="M95.5 158.5L117.5 138L136.5 124L145.5 133.5H151L159.5 130.5L164 137L177 163L174.5 165L170.5 163L162 165L151 159.5L126.5 172L102 161.331L95.5 158.5Z" fill="#0B9E43" fill-opacity="0.15"/>
<path d="M117.5 138L95.5 158.5L102 161.331M117.5 138L136.5 124L145.5 133.5M117.5 138L128.5 149.5M145.5 133.5H151L159.5 130.5L164 137M145.5 133.5L139.656 139M164 137L177 163L174.5 165L170.5 163L162 165L151 159.5L126.5 172L102 161.331M164 137L159.5 139V146L145.5 151.5M102 161.331L128.5 149.5M128.5 149.5L139.656 139M139.656 139L142 142M142 142L138.5 144L142 151.5H145.5M142 142H147.5L148.5 146H151L148.5 149.5L145.5 151.5M145.5 151.5L148.5 159.5" stroke="#0B9E43" stroke-linecap="round" stroke-linejoin="round"/>
<path d="M114.54 91.12C114.54 90.1067 114.7 89.1667 115.02 88.3C115.34 87.4333 115.8 86.68 116.4 86.04C117.013 85.3867 117.74 84.8867 118.58 84.54C119.433 84.18 120.373 84 121.4 84C122.24 84 123.007 84.1133 123.7 84.34C124.393 84.5533 125 84.8733 125.52 85.3C126.04 85.7133 126.467 86.2133 126.8 86.8C127.133 87.3867 127.367 88.0467 127.5 88.78H124.82C124.713 88.38 124.56 88.0267 124.36 87.72C124.16 87.4133 123.913 87.1533 123.62 86.94C123.34 86.7267 123.013 86.5667 122.64 86.46C122.267 86.3533 121.853 86.3 121.4 86.3C120.773 86.3 120.207 86.42 119.7 86.66C119.193 86.8867 118.76 87.2133 118.4 87.64C118.04 88.0667 117.767 88.58 117.58 89.18C117.393 89.7667 117.3 90.4133 117.3 91.12C117.3 91.8133 117.393 92.4533 117.58 93.04C117.78 93.6267 118.06 94.14 118.42 94.58C118.78 95.0067 119.213 95.34 119.72 95.58C120.227 95.82 120.787 95.94 121.4 95.94C121.88 95.94 122.307 95.8867 122.68 95.78C123.067 95.6733 123.393 95.5133 123.66 95.3C123.94 95.0867 124.173 94.8267 124.36 94.52C124.56 94.2133 124.713 93.86 124.82 93.46H127.5C127.367 94.1933 127.133 94.8533 126.8 95.44C126.467 96.0267 126.033 96.5333 125.5 96.96C124.98 97.3733 124.367 97.6933 123.66 97.92C122.967 98.1333 122.2 98.24 121.36 98.24C120.32 98.24 119.373 98.0667 118.52 97.72C117.68 97.36 116.96 96.86 116.36 96.22C115.773 95.58 115.32 94.8267 115 93.96C114.693 93.0933 114.54 92.1467 114.54 91.12ZM129.529 98V84.24H139.509V86.46H132.209V89.92H138.089V92.04H132.209V95.78H139.689V98H129.529ZM141.922 98V84.24H144.342L151.242 93.44H151.322L151.242 84.24H153.922V98H151.542L144.602 88.8H144.522L144.602 98H141.922ZM155.296 86.48V84.24H167.296V86.48H162.636V98H159.956V86.48H155.296ZM168.68 98V84.24H174.58C175.393 84.24 176.113 84.34 176.74 84.54C177.38 84.7267 177.913 85.0067 178.34 85.38C178.78 85.74 179.107 86.1867 179.32 86.72C179.547 87.2533 179.66 87.8533 179.66 88.52C179.66 89.0133 179.593 89.48 179.46 89.92C179.34 90.3467 179.16 90.74 178.92 91.1C178.68 91.4467 178.373 91.76 178 92.04C177.64 92.3067 177.227 92.52 176.76 92.68L180.18 98H177.26L174.1 93H171.36V98H168.68ZM174.46 86.4H171.36V90.9H174.46C174.86 90.9 175.213 90.8467 175.52 90.74C175.84 90.62 176.1 90.4533 176.3 90.24C176.513 90.0267 176.673 89.78 176.78 89.5C176.887 89.2067 176.94 88.8867 176.94 88.54C176.94 88.2067 176.887 87.9133 176.78 87.66C176.673 87.3933 176.513 87.1667 176.3 86.98C176.087 86.7933 175.827 86.6533 175.52 86.56C175.213 86.4533 174.86 86.4 174.46 86.4ZM182.167 98V84.24H192.147V86.46H184.847V89.92H190.727V92.04H184.847V95.78H192.327V98H182.167ZM112.011 111.12C112.011 110.107 112.171 109.167 112.491 108.3C112.811 107.433 113.271 106.68 113.871 106.04C114.484 105.387 115.211 104.887 116.051 104.54C116.904 104.18 117.844 104 118.871 104C119.711 104 120.478 104.113 121.171 104.34C121.864 104.553 122.471 104.873 122.991 105.3C123.511 105.713 123.938 106.213 124.271 106.8C124.604 107.387 124.838 108.047 124.971 108.78H122.291C122.184 108.38 122.031 108.027 121.831 107.72C121.631 107.413 121.384 107.153 121.091 106.94C120.811 106.727 120.484 106.567 120.111 106.46C119.738 106.353 119.324 106.3 118.871 106.3C118.244 106.3 117.678 106.42 117.171 106.66C116.664 106.887 116.231 107.213 115.871 107.64C115.511 108.067 115.238 108.58 115.051 109.18C114.864 109.767 114.771 110.413 114.771 111.12C114.771 111.813 114.864 112.453 115.051 113.04C115.251 113.627 115.531 114.14 115.891 114.58C116.251 115.007 116.684 115.34 117.191 115.58C117.698 115.82 118.258 115.94 118.871 115.94C119.351 115.94 119.778 115.887 120.151 115.78C120.538 115.673 120.864 115.513 121.131 115.3C121.411 115.087 121.644 114.827 121.831 114.52C122.031 114.213 122.184 113.86 122.291 113.46H124.971C124.838 114.193 124.604 114.853 124.271 115.44C123.938 116.027 123.504 116.533 122.971 116.96C122.451 117.373 121.838 117.693 121.131 117.92C120.438 118.133 119.671 118.24 118.831 118.24C117.791 118.24 116.844 118.067 115.991 117.72C115.151 117.36 114.431 116.86 113.831 116.22C113.244 115.58 112.791 114.827 112.471 113.96C112.164 113.093 112.011 112.147 112.011 111.12ZM126.376 111.12C126.376 110.107 126.536 109.167 126.856 108.3C127.19 107.42 127.663 106.66 128.276 106.02C128.903 105.38 129.65 104.887 130.516 104.54C131.396 104.18 132.356 104 133.396 104C134.423 104 135.37 104.18 136.236 104.54C137.103 104.887 137.843 105.38 138.456 106.02C139.083 106.66 139.563 107.42 139.896 108.3C140.23 109.167 140.396 110.107 140.396 111.12C140.396 112.133 140.23 113.08 139.896 113.96C139.563 114.827 139.083 115.58 138.456 116.22C137.843 116.86 137.103 117.36 136.236 117.72C135.37 118.067 134.423 118.24 133.396 118.24C132.356 118.24 131.396 118.067 130.516 117.72C129.65 117.36 128.903 116.86 128.276 116.22C127.663 115.58 127.19 114.827 126.856 113.96C126.536 113.08 126.376 112.133 126.376 111.12ZM129.136 111.12C129.136 111.813 129.236 112.46 129.436 113.06C129.636 113.647 129.923 114.16 130.296 114.6C130.683 115.027 131.136 115.36 131.656 115.6C132.19 115.827 132.77 115.94 133.396 115.94C134.023 115.94 134.596 115.82 135.116 115.58C135.636 115.34 136.083 115.007 136.456 114.58C136.843 114.14 137.136 113.627 137.336 113.04C137.536 112.453 137.636 111.813 137.636 111.12C137.636 110.427 137.536 109.787 137.336 109.2C137.136 108.613 136.843 108.107 136.456 107.68C136.083 107.24 135.636 106.9 135.116 106.66C134.596 106.42 134.023 106.3 133.396 106.3C132.77 106.3 132.19 106.42 131.656 106.66C131.136 106.887 130.683 107.22 130.296 107.66C129.923 108.087 129.636 108.6 129.436 109.2C129.236 109.787 129.136 110.427 129.136 111.12ZM142.316 112.48V104.24H145.016V112.44C145.016 113 145.083 113.5 145.216 113.94C145.349 114.367 145.549 114.733 145.816 115.04C146.083 115.333 146.416 115.56 146.816 115.72C147.229 115.867 147.709 115.94 148.256 115.94C148.789 115.94 149.256 115.867 149.656 115.72C150.069 115.56 150.409 115.333 150.676 115.04C150.943 114.733 151.143 114.367 151.276 113.94C151.409 113.5 151.476 113 151.476 112.44V104.24H154.176V112.48C154.176 113.52 154.036 114.413 153.756 115.16C153.476 115.893 153.069 116.487 152.536 116.94C152.016 117.393 151.396 117.727 150.676 117.94C149.969 118.14 149.163 118.24 148.256 118.24C147.349 118.24 146.536 118.14 145.816 117.94C145.096 117.727 144.476 117.393 143.956 116.94C143.436 116.487 143.029 115.893 142.736 115.16C142.456 114.413 142.316 113.52 142.316 112.48ZM156.746 118V104.24H159.166L166.066 113.44H166.146L166.066 104.24H168.746V118H166.366L159.426 108.8H159.346L159.426 118H156.746ZM170.121 106.48V104.24H182.121V106.48H177.461V118H174.781V106.48H170.121ZM187.828 118V112.72L182.768 104.24H185.808L189.188 110.16H189.268L192.828 104.24H195.668L190.528 112.64V118H187.828Z" fill="#8492A6"/>
<path d="M161.5 130.5L497 66.5" stroke="#8492A6" stroke-opacity="0.5" stroke-width="2" stroke-linecap="round" stroke-linejoin="round" stroke-dasharray="6 12"/>
<path d="M96 158L46 440" stroke="#8492A6" stroke-opacity="0.5" stroke-width="2" stroke-linecap="round" stroke-linejoin="round" stroke-dasharray="6 12"/>
</svg>
